<?xml version="1.0" encoding="UTF-8"?>
<!DOCTYPE svg PUBLIC "-//W3C//DTD SVG 1.1//EN" "http://www.w3.org/Graphics/SVG/1.1/DTD/svg11.dtd">
<svg xmlns="http://www.w3.org/2000/svg" version="1.1" width="1024px" height="1024px" style="shape-rendering:geometricPrecision; text-rendering:geometricPrecision; image-rendering:optimizeQuality; fill-rule:evenodd; clip-rule:evenodd" xmlns:xlink="http://www.w3.org/1999/xlink">
<g><path style="opacity:1" fill="#ede4d4" d="M 548.5,70.5 C 553.583,72.0784 558.916,72.7451 564.5,72.5C 588.433,74.7533 611.767,79.42 634.5,86.5C 634.881,87.9311 635.881,88.7645 637.5,89C 639.81,89.4966 642.143,89.6633 644.5,89.5C 646.965,89.767 649.299,90.4336 651.5,91.5C 651.804,92.1499 652.137,92.8165 652.5,93.5C 656.371,95.126 660.371,96.126 664.5,96.5C 666.786,96.595 668.786,97.2616 670.5,98.5C 672.836,101.917 676.169,103.251 680.5,102.5C 680.983,104.87 682.149,105.537 684,104.5C 685.401,106.192 687.234,106.859 689.5,106.5C 765.227,139.354 826.56,189.688 873.5,257.5C 873.343,258.873 873.51,260.207 874,261.5C 877.319,264.234 878.819,267.568 878.5,271.5C 879.086,271.291 879.586,270.957 880,270.5C 881.377,274.279 883.877,276.946 887.5,278.5C 902.117,301.067 914.117,325.067 923.5,350.5C 924.312,355.475 925.145,360.475 926,365.5C 928.166,371.53 930.999,377.197 934.5,382.5C 936.746,395.186 939.579,408.519 943,422.5C 943.852,423.571 944.685,424.571 945.5,425.5C 947.471,433.36 948.804,441.36 949.5,449.5C 949.444,454.731 950.111,459.731 951.5,464.5C 952.758,472.306 953.592,480.306 954,488.5C 955.968,523.405 954.135,558.071 948.5,592.5C 947.491,593.935 946.157,594.769 944.5,595C 945.804,595.804 946.471,596.971 946.5,598.5C 943.754,605.563 942.421,612.897 942.5,620.5C 941.151,629.859 938.818,638.859 935.5,647.5C 934.503,647.47 933.836,647.97 933.5,649C 932.678,651.434 932.344,653.934 932.5,656.5C 932.233,658.965 931.566,661.299 930.5,663.5C 929.883,663.389 929.383,663.056 929,662.5C 927.215,666.305 926.382,670.305 926.5,674.5C 926.737,675.791 926.404,676.791 925.5,677.5C 924.5,677.5 923.5,677.5 922.5,677.5C 922.037,680.482 921.704,683.482 921.5,686.5C 919.074,689.23 917.741,692.563 917.5,696.5C 908.08,720.014 896.08,742.014 881.5,762.5C 880.167,762.5 878.833,762.5 877.5,762.5C 877.66,764.199 877.494,765.866 877,767.5C 876.586,767.043 876.086,766.709 875.5,766.5C 874.548,768.045 874.215,769.712 874.5,771.5C 873.127,771.343 871.793,771.51 870.5,772C 869.833,774 868.5,775.333 866.5,776C 868.155,777.444 868.822,779.278 868.5,781.5C 860.89,792.109 852.557,802.109 843.5,811.5C 842.5,811.5 841.5,811.5 840.5,811.5C 840.5,812.5 840.5,813.5 840.5,814.5C 837.671,814.325 836.004,815.658 835.5,818.5C 831.232,817.786 829.565,819.786 830.5,824.5C 827.046,824.267 826.046,825.6 827.5,828.5C 810.663,846.011 792.329,861.677 772.5,875.5C 769.193,874.842 766.36,874.842 764,875.5C 762.872,877.345 762.372,879.345 762.5,881.5C 758.734,881.426 755.734,882.926 753.5,886C 752.552,886.483 751.552,886.649 750.5,886.5C 750.5,887.833 750.5,889.167 750.5,890.5C 744.795,894.353 738.795,897.686 732.5,900.5C 730.43,900.449 728.597,901.115 727,902.5C 725.848,900.488 724.682,900.322 723.5,902C 724.337,903.011 724.67,904.178 724.5,905.5C 720.55,908.308 716.217,910.308 711.5,911.5C 710.305,911.322 709.138,910.989 708,910.5C 703.31,913.566 698.144,915.566 692.5,916.5C 691.826,918.195 691.159,919.862 690.5,921.5C 664.215,933.149 636.882,941.816 608.5,947.5C 597.637,947.473 587.304,949.473 577.5,953.5C 540.805,959.293 504.138,960.293 467.5,956.5C 462.04,955.263 456.373,954.596 450.5,954.5C 439.979,953.802 429.645,952.135 419.5,949.5C 413.272,945.256 406.272,943.589 398.5,944.5C 396.485,943.076 394.152,942.41 391.5,942.5C 389.901,942.768 388.568,942.434 387.5,941.5C 384.495,939.723 381.162,938.723 377.5,938.5C 374.495,936.723 371.162,935.723 367.5,935.5C 367.167,935.5 366.833,935.5 366.5,935.5C 364.71,934.239 363.043,932.739 361.5,931C 356.261,929.631 350.927,928.465 345.5,927.5C 338.551,925.352 331.884,922.686 325.5,919.5C 325.586,918.504 325.252,917.671 324.5,917C 322.26,916.023 319.927,915.523 317.5,915.5C 303.03,909.435 289.363,902.102 276.5,893.5C 276.027,892.094 275.027,891.427 273.5,891.5C 239.66,871.036 209.326,846.036 182.5,816.5C 183.106,810.735 180.44,807.068 174.5,805.5C 172.1,802.904 170.1,799.904 168.5,796.5C 167.086,795.376 165.586,794.376 164,793.5C 163.28,791.888 163.446,790.388 164.5,789C 162.527,788.505 160.527,788.338 158.5,788.5C 149.339,776.18 140.672,763.514 132.5,750.5C 132.146,748.459 132.146,746.626 132.5,745C 131.132,743.66 129.799,742.326 128.5,741C 128.905,740.055 129.572,739.388 130.5,739C 128.085,737.535 127.085,735.368 127.5,732.5C 124.924,732.532 122.591,731.865 120.5,730.5C 118.212,726.26 116.212,721.927 114.5,717.5C 114.611,716.883 114.944,716.383 115.5,716C 113.928,713.962 112.928,711.629 112.5,709C 112.833,708.667 113.167,708.333 113.5,708C 112.167,707.333 110.833,706.667 109.5,706C 110.634,704.984 110.301,704.317 108.5,704C 108.833,703.667 109.167,703.333 109.5,703C 107.019,699.197 105.186,695.031 104,690.5C 103.617,691.056 103.117,691.389 102.5,691.5C 97.703,681.557 93.703,671.223 90.5,660.5C 89.9904,655.793 89.1571,651.127 88,646.5C 87.6174,647.056 87.1174,647.389 86.5,647.5C 85.4749,638.39 83.6415,629.39 81,620.5C 80.6174,621.056 80.1174,621.389 79.5,621.5C 67.3064,570.446 64.1398,518.779 70,466.5C 71.4463,451.187 73.9463,436.187 77.5,421.5C 80.9707,415.055 82.6374,408.055 82.5,400.5C 82.2322,398.901 82.5655,397.568 83.5,396.5C 84.9238,394.485 85.5905,392.152 85.5,389.5C 85.595,387.214 86.2616,385.214 87.5,383.5C 88.8333,383.5 90.1667,383.5 91.5,383.5C 91.1783,377.346 91.845,371.346 93.5,365.5C 94.9048,359.285 96.9048,353.285 99.5,347.5C 100.496,347.586 101.329,347.252 102,346.5C 102.822,343.883 103.322,341.216 103.5,338.5C 104.075,335.088 105.408,332.088 107.5,329.5C 108.15,329.196 108.817,328.863 109.5,328.5C 110.284,325.951 111.451,323.618 113,321.5C 113.494,319.866 113.66,318.199 113.5,316.5C 116.073,309.685 119.406,303.351 123.5,297.5C 125.74,296.432 127.574,294.766 129,292.5C 129.163,290.324 129.996,288.491 131.5,287C 130.748,286.329 130.414,285.496 130.5,284.5C 131.906,284.027 132.573,283.027 132.5,281.5C 139.056,269.951 146.39,258.951 154.5,248.5C 155.906,248.027 156.573,247.027 156.5,245.5C 157.8,242.568 159.8,240.234 162.5,238.5C 164.437,237.41 166.27,236.076 168,234.5C 170.712,231.064 172.879,227.397 174.5,223.5C 180.726,215.098 187.559,207.098 195,199.5C 202.704,192.292 210.538,185.292 218.5,178.5C 221.089,177.581 223.089,175.914 224.5,173.5C 243.401,156.379 264.068,141.713 286.5,129.5C 288.027,129.573 289.027,128.906 289.5,127.5C 291.849,125.659 294.515,124.326 297.5,123.5C 301.474,123.013 305.141,121.68 308.5,119.5C 312.565,116.81 316.565,114.143 320.5,111.5C 326.861,107.989 333.528,104.989 340.5,102.5C 344.775,103.25 348.109,101.917 350.5,98.5C 353.716,98.6545 356.383,97.6545 358.5,95.5C 358.833,95.5 359.167,95.5 359.5,95.5C 367.767,93.4111 375.767,90.7444 383.5,87.5C 386.152,87.5905 388.485,86.9238 390.5,85.5C 393.152,85.5905 395.485,84.9238 397.5,83.5C 411.483,79.369 425.817,76.369 440.5,74.5C 448.066,74.2279 455.399,73.2279 462.5,71.5C 491.09,67.9842 519.757,67.6509 548.5,70.5 Z"/></g>
<g><path style="opacity:1" fill="#7f8180" d="M 548.5,70.5 C 554.034,70.6685 559.367,71.3351 564.5,72.5C 558.916,72.7451 553.583,72.0784 548.5,70.5 Z"/></g>
<g><path style="opacity:1" fill="#8f8f8f" d="M 462.5,71.5 C 455.399,73.2279 448.066,74.2279 440.5,74.5C 447.601,72.7721 454.934,71.7721 462.5,71.5 Z"/></g>
<g><path style="opacity:1" fill="#868587" d="M 397.5,83.5 C 395.485,84.9238 393.152,85.5905 390.5,85.5C 392.515,84.0762 394.848,83.4095 397.5,83.5 Z"/></g>
<g><path style="opacity:1" fill="#828183" d="M 390.5,85.5 C 388.485,86.9238 386.152,87.5905 383.5,87.5C 385.515,86.0762 387.848,85.4095 390.5,85.5 Z"/></g>
<g><path style="opacity:1" fill="#aaaaa4" d="M 634.5,86.5 C 638.116,86.8993 641.45,87.8993 644.5,89.5C 642.143,89.6633 639.81,89.4966 637.5,89C 635.881,88.7645 634.881,87.9311 634.5,86.5 Z"/></g>
<g><path style="opacity:1" fill="#939192" d="M 383.5,87.5 C 375.767,90.7444 367.767,93.4111 359.5,95.5C 367.085,91.8604 375.085,89.1937 383.5,87.5 Z"/></g>
<g><path style="opacity:1" fill="#9a9b9b" d="M 556.5,91.5 C 560.817,91.0834 564.817,91.7501 568.5,93.5C 564.316,93.1491 560.316,92.4824 556.5,91.5 Z"/></g>
<g><path style="opacity:1" fill="#a5a39d" d="M 651.5,91.5 C 656.091,92.721 660.424,94.3876 664.5,96.5C 660.371,96.126 656.371,95.126 652.5,93.5C 652.137,92.8165 651.804,92.1499 651.5,91.5 Z"/></g>
<g><path style="opacity:1" fill="#a09e9e" d="M 358.5,95.5 C 356.383,97.6545 353.716,98.6545 350.5,98.5C 352.936,97.129 355.603,96.129 358.5,95.5 Z"/></g>
<g><path style="opacity:1" fill="#bab7b3" d="M 350.5,98.5 C 348.109,101.917 344.775,103.25 340.5,102.5C 343.54,100.654 346.873,99.3208 350.5,98.5 Z"/></g>
<g><path style="opacity:1" fill="#acaea8" d="M 670.5,98.5 C 673.989,99.658 677.322,100.991 680.5,102.5C 676.169,103.251 672.836,101.917 670.5,98.5 Z"/></g>
<g><path style="opacity:1" fill="#a8a7a0" d="M 680.5,102.5 C 683.912,103.075 686.912,104.408 689.5,106.5C 687.234,106.859 685.401,106.192 684,104.5C 682.149,105.537 680.983,104.87 680.5,102.5 Z"/></g>
<g><path style="opacity:1" fill="#bebcb8" d="M 320.5,111.5 C 316.565,114.143 312.565,116.81 308.5,119.5C 305.141,121.68 301.474,123.013 297.5,123.5C 304.403,118.214 312.069,114.214 320.5,111.5 Z"/></g>
<g><path style="opacity:1" fill="#848587" d="M 289.5,127.5 C 289.027,128.906 288.027,129.573 286.5,129.5C 286.973,128.094 287.973,127.427 289.5,127.5 Z"/></g>
<g><path style="opacity:1" fill="#9a9898" d="M 224.5,173.5 C 223.089,175.914 221.089,177.581 218.5,178.5C 219.911,176.086 221.911,174.419 224.5,173.5 Z"/></g>
<g><path style="opacity:1" fill="#19222e" d="M 556.5,91.5 C 560.316,92.4824 564.316,93.1491 568.5,93.5C 702.02,113.963 804.187,181.297 875,295.5C 931.064,395.274 947.064,501.274 923,613.5C 895.615,727.503 832.115,815.003 732.5,876C 641.463,927.073 544.13,945.406 440.5,931C 312.195,907.93 213.695,841.43 145,731.5C 96.3237,643.792 78.9904,550.125 93,450.5C 114.213,320.466 180.046,220.299 290.5,150C 372.564,101.259 461.231,81.7588 556.5,91.5 Z"/></g>
<g><path style="opacity:1" fill="#f3f1ef" d="M 485.5,109.5 C 485.389,110.117 485.056,110.617 484.5,111C 469.17,113.102 453.837,115.102 438.5,117C 433.272,119.938 427.605,121.271 421.5,121C 402.966,125.843 384.633,131.51 366.5,138C 344.07,146.789 322.737,157.456 302.5,170C 289.038,176.912 276.704,185.578 265.5,196C 262.659,197.062 259.992,198.396 257.5,200C 246.997,210.836 236.164,221.336 225,231.5C 209.097,247.728 195.097,265.395 183,284.5C 180.008,288.492 176.674,292.158 173,295.5C 172.517,296.448 172.351,297.448 172.5,298.5C 171.391,298.557 170.391,298.89 169.5,299.5C 222.395,212.828 297.729,154.662 395.5,125C 424.897,116.267 454.897,111.101 485.5,109.5 Z"/></g>
<g><path style="opacity:1" fill="#f0e7d6" d="M 120.5,422.5 C 121.222,422.918 121.722,423.584 122,424.5C 123.062,415.35 125.729,406.683 130,398.5C 132.218,386.1 135.552,374.1 140,362.5C 143.5,358.031 146.5,353.364 149,348.5C 150.365,342.042 152.198,335.709 154.5,329.5C 157.86,326.327 160.694,323.327 163,320.5C 165.868,313.014 169.035,305.68 172.5,298.5C 172.351,297.448 172.517,296.448 173,295.5C 176.674,292.158 180.008,288.492 183,284.5C 195.097,265.395 209.097,247.728 225,231.5C 236.164,221.336 246.997,210.836 257.5,200C 259.992,198.396 262.659,197.062 265.5,196C 276.704,185.578 289.038,176.912 302.5,170C 322.737,157.456 344.07,146.789 366.5,138C 384.633,131.51 402.966,125.843 421.5,121C 427.605,121.271 433.272,119.938 438.5,117C 453.837,115.102 469.17,113.102 484.5,111C 485.056,110.617 485.389,110.117 485.5,109.5C 612.529,104.438 720.029,147.438 808,238.5C 886.4,329.046 920.4,434.379 910,554.5C 896.104,693.249 828.937,796.749 708.5,865C 605.698,917.373 498.698,928.04 387.5,897C 272.136,859.963 189.97,786.129 141,675.5C 111.749,600.513 103.416,523.18 116,443.5C 117.074,436.384 118.574,429.384 120.5,422.5 Z"/></g>
<g><path style="opacity:1" fill="#f0efed" d="M 587.5,179.5 C 588.347,180.966 589.68,181.8 591.5,182C 580.506,180.603 569.506,178.937 558.5,177C 464.361,166.617 378.694,188.284 301.5,242C 285.096,255.4 269.596,269.9 255,285.5C 247.384,297.077 239.05,308.077 230,318.5C 228.861,374.528 227.028,430.528 224.5,486.5C 222.975,490.191 220.308,492.691 216.5,494C 197.491,494.833 178.491,494.666 159.5,493.5C 158.873,492.583 158.539,491.583 158.5,490.5C 177.503,490.667 196.503,490.5 215.5,490C 218.728,488.437 220.895,485.937 222,482.5C 223.376,427.14 225.376,371.806 228,316.5C 270.541,252.104 329.041,208.937 403.5,187C 464.158,168.35 525.491,165.85 587.5,179.5 Z"/></g>
<g><path style="opacity:1" fill="#17212d" d="M 833.5,334.5 C 834.038,336.117 834.371,337.784 834.5,339.5C 837.139,359.804 839.639,380.138 842,400.5C 849.736,430.106 855.236,460.106 858.5,490.5C 840.83,490.667 823.164,490.5 805.5,490C 803.291,488.127 801.458,485.96 800,483.5C 798.574,428.477 796.574,373.477 794,318.5C 743.973,244.706 675.139,198.373 587.5,179.5C 525.491,165.85 464.158,168.35 403.5,187C 329.041,208.937 270.541,252.104 228,316.5C 225.376,371.806 223.376,427.14 222,482.5C 220.895,485.937 218.728,488.437 215.5,490C 196.503,490.5 177.503,490.667 158.5,490.5C 154.98,489.817 152.48,487.817 151,484.5C 158.222,358.168 214.722,261.001 320.5,193C 411.093,140.955 507.093,127.955 608.5,154C 709.025,182.725 784.025,242.892 833.5,334.5 Z"/></g>
<g><path style="opacity:1" fill="#17202c" d="M 488.5,208.5 C 490.716,209.203 492.549,210.536 494,212.5C 494.5,238.498 494.667,264.498 494.5,290.5C 493.409,293.428 491.409,295.594 488.5,297C 433.5,297.333 378.5,297.667 323.5,298C 320.157,299.922 317.323,302.422 315,305.5C 314.667,365.167 314.333,424.833 314,484.5C 312.833,487 311,488.833 308.5,490C 293.837,490.5 279.17,490.667 264.5,490.5C 261.909,489.746 260.076,488.079 259,485.5C 259.452,433.152 260.785,380.819 263,328.5C 315.173,258.802 385.006,219.135 472.5,209.5C 477.845,209.313 483.178,208.98 488.5,208.5 Z"/></g>
<g><path style="opacity:1" fill="#454549" d="M 488.5,208.5 C 483.178,208.98 477.845,209.313 472.5,209.5C 477.755,207.476 483.089,207.143 488.5,208.5 Z"/></g>
<g><path style="opacity:1" fill="#cac7c4" d="M 174.5,223.5 C 172.879,227.397 170.712,231.064 168,234.5C 166.27,236.076 164.437,237.41 162.5,238.5C 165.747,232.917 169.747,227.917 174.5,223.5 Z"/></g>
<g><path style="opacity:1" fill="#76787a" d="M 156.5,245.5 C 156.573,247.027 155.906,248.027 154.5,248.5C 154.427,246.973 155.094,245.973 156.5,245.5 Z"/></g>
<g><path style="opacity:1" fill="#cbc6bf" d="M 873.5,257.5 C 878.908,263.976 883.575,270.976 887.5,278.5C 883.877,276.946 881.377,274.279 880,270.5C 879.586,270.957 879.086,271.291 878.5,271.5C 878.819,267.568 877.319,264.234 874,261.5C 873.51,260.207 873.343,258.873 873.5,257.5 Z"/></g>
<g><path style="opacity:1" fill="#6e7173" d="M 132.5,281.5 C 132.573,283.027 131.906,284.027 130.5,284.5C 130.427,282.973 131.094,281.973 132.5,281.5 Z"/></g>
<g><path style="opacity:1" fill="#c7c5c1" d="M 130.5,284.5 C 130.414,285.496 130.748,286.329 131.5,287C 129.996,288.491 129.163,290.324 129,292.5C 127.574,294.766 125.74,296.432 123.5,297.5C 125.439,292.91 127.773,288.577 130.5,284.5 Z"/></g>
<g><path style="opacity:1" fill="#ecebe9" d="M 264.5,490.5 C 279.17,490.667 293.837,490.5 308.5,490C 311,488.833 312.833,487 314,484.5C 314.333,424.833 314.667,365.167 315,305.5C 317.323,302.422 320.157,299.922 323.5,298C 378.5,297.667 433.5,297.333 488.5,297C 491.409,295.594 493.409,293.428 494.5,290.5C 495.332,265.003 495.832,239.337 496,213.5C 496.667,214.167 497.333,214.833 498,215.5C 498.667,241.833 498.667,268.167 498,294.5C 496.833,297 495,298.833 492.5,300C 437.167,300.333 381.833,300.667 326.5,301C 322.503,302.14 319.67,304.64 318,308.5C 317.667,368.167 317.333,427.833 317,487.5C 315.5,490.333 313.333,492.5 310.5,494C 296.167,494.667 281.833,494.667 267.5,494C 266.29,492.961 265.29,491.794 264.5,490.5 Z"/></g>
<g><path style="opacity:1" fill="#b8b8b4" d="M 113.5,316.5 C 113.66,318.199 113.494,319.866 113,321.5C 111.451,323.618 110.284,325.951 109.5,328.5C 108.817,328.863 108.15,329.196 107.5,329.5C 108.716,324.738 110.716,320.405 113.5,316.5 Z"/></g>
<g><path style="opacity:1" fill="#fcf8f1" d="M 753.5,490.5 C 762.702,489.811 766.368,484.811 764.5,475.5C 762.412,426.804 760.412,378.138 758.5,329.5C 758.56,328.957 758.893,328.624 759.5,328.5C 760.853,329.685 762.02,331.019 763,332.5C 764.598,383.85 766.265,435.184 768,486.5C 766.207,489.295 764.04,491.795 761.5,494C 746.167,494.667 730.833,494.667 715.5,494C 714.833,493.333 714.167,492.667 713.5,492C 727.006,491.831 740.34,491.331 753.5,490.5 Z"/></g>
<g><path style="opacity:1" fill="#bab9b9" d="M 103.5,338.5 C 103.322,341.216 102.822,343.883 102,346.5C 101.329,347.252 100.496,347.586 99.5,347.5C 100.463,344.256 101.796,341.256 103.5,338.5 Z"/></g>
<g><path style="opacity:1" fill="#cfcbc3" d="M 923.5,350.5 C 927.945,360.833 931.612,371.5 934.5,382.5C 930.999,377.197 928.166,371.53 926,365.5C 925.145,360.475 924.312,355.475 923.5,350.5 Z"/></g>
<g><path style="opacity:1" fill="#ebe7e0" d="M 172.5,298.5 C 169.035,305.68 165.868,313.014 163,320.5C 160.694,323.327 157.86,326.327 154.5,329.5C 152.198,335.709 150.365,342.042 149,348.5C 146.5,353.364 143.5,358.031 140,362.5C 135.552,374.1 132.218,386.1 130,398.5C 125.729,406.683 123.062,415.35 122,424.5C 121.722,423.584 121.222,422.918 120.5,422.5C 129.606,378.494 145.939,337.494 169.5,299.5C 170.391,298.89 171.391,298.557 172.5,298.5 Z"/></g>
<g><path style="opacity:1" fill="#c1b8a6" d="M 734.5,303.5 C 737.731,305.22 740.564,307.553 743,310.5C 748.031,317.022 753.197,323.356 758.5,329.5C 760.412,378.138 762.412,426.804 764.5,475.5C 766.368,484.811 762.702,489.811 753.5,490.5C 753.156,458.314 752.156,426.148 750.5,394C 751.708,373.805 752.874,353.638 754,333.5C 747.241,323.642 740.741,313.642 734.5,303.5 Z"/></g>
<g><path style="opacity:1" fill="#c5c2bc" d="M 93.5,365.5 C 91.845,371.346 91.1783,377.346 91.5,383.5C 90.1667,383.5 88.8333,383.5 87.5,383.5C 88.5271,377.085 90.5271,371.085 93.5,365.5 Z"/></g>
<g><path style="opacity:1" fill="#7c7c7e" d="M 85.5,389.5 C 85.5905,392.152 84.9238,394.485 83.5,396.5C 83.4095,393.848 84.0762,391.515 85.5,389.5 Z"/></g>
<g><path style="opacity:1" fill="#c3c1b9" d="M 934.5,382.5 C 939.238,396.448 942.904,410.782 945.5,425.5C 944.685,424.571 943.852,423.571 943,422.5C 939.579,408.519 936.746,395.186 934.5,382.5 Z"/></g>
<g><path style="opacity:1" fill="#b7b4b1" d="M 82.5,400.5 C 82.6374,408.055 80.9707,415.055 77.5,421.5C 78.4078,414.207 80.0745,407.207 82.5,400.5 Z"/></g>
<g><path style="opacity:1" fill="#c4bca9" d="M 834.5,339.5 C 838.113,345.393 841.28,351.726 844,358.5C 855.449,386.518 863.449,415.518 868,445.5C 869.995,458.775 870.661,472.109 870,485.5C 867.181,489.493 863.347,491.16 858.5,490.5C 855.236,460.106 849.736,430.106 842,400.5C 839.639,380.138 837.139,359.804 834.5,339.5 Z"/></g>
<g><path style="opacity:1" fill="#fbf8f1" d="M 858.5,490.5 C 863.347,491.16 867.181,489.493 870,485.5C 870.661,472.109 869.995,458.775 868,445.5C 863.449,415.518 855.449,386.518 844,358.5C 841.28,351.726 838.113,345.393 834.5,339.5C 834.371,337.784 834.038,336.117 833.5,334.5C 833.872,332.344 834.872,332.344 836.5,334.5C 856.635,375.801 869.135,419.468 874,465.5C 874.667,472.5 874.667,479.5 874,486.5C 872.14,491.856 868.307,494.356 862.5,494C 845.157,494.833 827.824,494.666 810.5,493.5C 809.271,492.719 807.938,492.219 806.5,492C 824.005,491.832 841.338,491.332 858.5,490.5 Z"/></g>
<g><path style="opacity:1" fill="#8d8b8a" d="M 949.5,449.5 C 950.889,454.269 951.556,459.269 951.5,464.5C 950.111,459.731 949.444,454.731 949.5,449.5 Z"/></g>
<g><path style="opacity:1" fill="#232b32" d="M 352.5,361.5 C 352.432,411.801 352.098,461.801 351.5,511.5C 353.312,518.964 353.479,526.631 352,534.5C 351.5,554.497 351.333,574.497 351.5,594.5C 350.489,568.838 349.823,543.005 349.5,517C 350.412,465.001 351.412,413.168 352.5,361.5 Z"/></g>
<g><path style="opacity:1" fill="#262e38" d="M 670.5,451.5 C 671.422,471.663 672.089,491.997 672.5,512.5C 672.499,518.343 672.166,524.01 671.5,529.5C 671.666,525.486 671.499,521.486 671,517.5C 670.113,522.727 669.613,522.56 669.5,517C 670.249,495.474 670.582,473.641 670.5,451.5 Z"/></g>
<g><path style="opacity:1" fill="#17202c" d="M 222.5,535.5 C 222.361,589.34 223.028,643.007 224.5,696.5C 251.508,740.676 286.841,776.843 330.5,805C 344.062,809.356 357.728,813.189 371.5,816.5C 387.466,821.574 403.8,825.574 420.5,828.5C 442.012,833.085 463.679,836.585 485.5,839C 486.333,839.833 487.167,840.667 488,841.5C 488.5,852.161 488.667,862.828 488.5,873.5C 487.375,875.129 486.041,876.629 484.5,878C 476.276,878.819 468.276,878.319 460.5,876.5C 456.028,875.356 451.362,874.523 446.5,874C 446.833,873.667 447.167,873.333 447.5,873C 446.333,871.833 445.167,870.667 444,869.5C 443.667,869.833 443.333,870.167 443,870.5C 440.667,869.833 438.333,869.167 436,868.5C 434.684,871.028 433.517,871.028 432.5,868.5C 429.492,867.935 426.659,866.935 424,865.5C 423.544,866.744 424.044,867.577 425.5,868C 419.035,866.786 412.368,865.952 405.5,865.5C 393.529,862.843 381.862,859.176 370.5,854.5C 263.129,810.079 193.295,732.079 161,620.5C 156.26,599.724 152.926,578.724 151,557.5C 150.333,549.5 150.333,541.5 151,533.5C 152.5,532 154,530.5 155.5,529C 175.833,528.333 196.167,528.333 216.5,529C 218.734,531.063 220.734,533.229 222.5,535.5 Z"/></g>
<g><path style="opacity:1" fill="#18212c" d="M 734.5,303.5 C 740.741,313.642 747.241,323.642 754,333.5C 752.874,353.638 751.708,373.805 750.5,394C 752.156,426.148 753.156,458.314 753.5,490.5C 739.496,490.667 725.496,490.5 711.5,490C 709.622,488.457 708.122,486.624 707,484.5C 706.667,424.833 706.333,365.167 706,305.5C 704.285,302.283 701.785,299.95 698.5,298.5C 657.238,297.34 615.904,297.173 574.5,298C 573.748,298.671 573.414,299.504 573.5,300.5C 570.834,331.134 570.168,361.801 571.5,392.5C 572.756,392.461 573.756,392.961 574.5,394C 571.918,395.713 569.252,396.213 566.5,395.5C 565.304,395.846 565.304,396.346 566.5,397C 564.481,397.45 562.648,398.283 561,399.5C 559.984,398.366 559.317,398.699 559,400.5C 558.667,400.167 558.333,399.833 558,399.5C 556.519,402.487 554.352,403.654 551.5,403C 551.833,403.333 552.167,403.667 552.5,404C 544.169,408.775 536.669,414.608 530,421.5C 529,421.5 528,421.5 527,421.5C 525.19,425.257 523.19,428.924 521,432.5C 520.333,433.833 519.667,433.833 519,432.5C 517.887,433.76 517.72,434.927 518.5,436C 517.833,436.333 517.167,436.667 516.5,437C 517.451,437.718 517.617,438.551 517,439.5C 515.745,440.211 514.579,441.044 513.5,442C 513.189,486.226 513.522,530.392 514.5,574.5C 514.335,577.85 514.502,581.183 515,584.5C 515.717,583.956 516.217,583.289 516.5,582.5C 517.833,580.5 519.167,578.5 520.5,576.5C 522.39,576.703 523.89,576.037 525,574.5C 526.333,577.167 527.667,577.167 529,574.5C 529.717,575.044 530.217,575.711 530.5,576.5C 529.064,577.429 527.731,578.595 526.5,580C 527.094,580.464 527.761,580.631 528.5,580.5C 529.873,580.343 531.207,580.51 532.5,581C 530.359,582.308 528.359,583.808 526.5,585.5C 530.309,586.226 533.976,587.226 537.5,588.5C 540.651,587.045 543.984,586.045 547.5,585.5C 551.374,587.324 554.374,586.49 556.5,583C 558.167,582.667 559.833,582.333 561.5,582C 560.584,581.722 559.918,581.222 559.5,580.5C 560.492,580.672 561.158,580.338 561.5,579.5C 587.162,578.271 612.828,578.271 638.5,579.5C 638.5,578.5 638.5,577.5 638.5,576.5C 636.833,576.5 635.167,576.5 633.5,576.5C 629.03,575.514 624.363,575.181 619.5,575.5C 607.007,574.669 594.34,574.169 581.5,574C 583.382,573.802 585.048,573.302 586.5,572.5C 587.791,572.737 588.791,572.404 589.5,571.5C 603.167,571.5 616.833,571.5 630.5,571.5C 634.298,572.483 638.298,572.817 642.5,572.5C 642.828,560.988 642.495,549.654 641.5,538.5C 640.661,498.483 639.327,458.483 637.5,418.5C 639.5,418.5 641.5,418.5 643.5,418.5C 643.5,418.833 643.5,419.167 643.5,419.5C 644.562,474.854 646.228,530.188 648.5,585.5C 620.663,584.956 592.997,584.956 565.5,585.5C 562.772,585.171 560.438,585.837 558.5,587.5C 557.833,587.5 557.167,587.5 556.5,587.5C 553.848,587.41 551.515,588.076 549.5,589.5C 549.167,589.5 548.833,589.5 548.5,589.5C 543.775,590.351 539.108,591.518 534.5,593C 533.62,594.356 533.286,595.856 533.5,597.5C 532.209,602.325 529.209,605.658 524.5,607.5C 518.87,608.292 513.203,608.625 507.5,608.5C 506.833,608.5 506.167,608.5 505.5,608.5C 503.544,607.508 501.544,606.508 499.5,605.5C 496.833,604.833 495.167,603.167 494.5,600.5C 494.98,597.315 494.314,594.481 492.5,592C 488.13,591.263 483.796,590.43 479.5,589.5C 476.544,588.158 474.544,586.492 473.5,584.5C 477.846,584.334 482.179,584.501 486.5,585C 486.167,585.333 485.833,585.667 485.5,586C 488.853,586.747 492.02,586.247 495,584.5C 495.772,584.645 496.439,584.978 497,585.5C 497.903,584.299 499.069,583.465 500.5,583C 498.449,580.98 496.116,579.48 493.5,578.5C 488.904,575.098 483.904,572.264 478.5,570C 462.175,563.919 445.508,559.086 428.5,555.5C 420.267,552.787 411.934,550.454 403.5,548.5C 401.323,548.414 399.323,547.747 397.5,546.5C 396.533,499.502 396.533,452.502 397.5,405.5C 396.167,405.5 394.833,405.5 393.5,405.5C 393.5,433.167 393.5,460.833 393.5,488.5C 392.502,512.661 392.169,536.994 392.5,561.5C 399.5,561.5 406.5,561.5 413.5,561.5C 417.167,561.5 420.833,561.5 424.5,561.5C 431.983,562.584 439.65,563.251 447.5,563.5C 454.307,564.202 460.974,565.868 467.5,568.5C 450.34,568.963 433.007,568.963 415.5,568.5C 407.167,568.5 398.833,568.5 390.5,568.5C 389.5,568.5 388.5,568.5 387.5,568.5C 387.5,522.833 387.5,477.167 387.5,431.5C 388.163,429.527 388.496,427.361 388.5,425C 388.467,422.39 387.8,420.223 386.5,418.5C 386.5,417.833 386.5,417.167 386.5,416.5C 386.5,415.833 386.833,415.5 387.5,415.5C 388.434,414.432 388.768,413.099 388.5,411.5C 382.974,411.179 377.64,411.512 372.5,412.5C 371.679,415.641 371.179,418.975 371,422.5C 370.5,442.831 370.333,463.164 370.5,483.5C 369.151,504.32 368.485,525.32 368.5,546.5C 368.5,550.833 368.5,555.167 368.5,559.5C 367.167,570.5 367.167,581.5 368.5,592.5C 375.826,593.166 383.326,593.5 391,593.5C 414.463,592.071 437.963,591.071 461.5,590.5C 468.405,592.244 475.405,593.577 482.5,594.5C 485.354,595.205 488.021,596.205 490.5,597.5C 490.887,604.558 494.554,608.891 501.5,610.5C 504.526,612.019 507.859,612.685 511.5,612.5C 514.025,612.497 516.359,612.163 518.5,611.5C 526.214,611.482 531.88,608.149 535.5,601.5C 538.557,596.976 542.891,594.81 548.5,595C 549.056,594.617 549.389,594.117 549.5,593.5C 549.833,593.5 550.167,593.5 550.5,593.5C 555.312,594.035 559.645,593.035 563.5,590.5C 564.167,590.5 564.833,590.5 565.5,590.5C 579.157,591.154 592.824,591.487 606.5,591.5C 619.495,592.166 632.495,592.833 645.5,593.5C 648.686,593.498 651.686,593.165 654.5,592.5C 655.489,587.025 655.822,581.358 655.5,575.5C 655.455,559.826 655.122,544.159 654.5,528.5C 654.488,503.158 653.988,477.825 653,452.5C 652.819,449.305 652.319,446.305 651.5,443.5C 650.6,433.198 650.267,422.865 650.5,412.5C 648.429,411.191 645.929,410.525 643,410.5C 640.31,410.503 637.81,410.836 635.5,411.5C 635.5,413.167 635.5,414.833 635.5,416.5C 634.549,415.081 634.216,413.415 634.5,411.5C 632.856,411.714 631.356,411.38 630,410.5C 631.072,413.176 630.405,415.509 628,417.5C 627.817,414.635 627.317,411.969 626.5,409.5C 626.5,406.5 626.5,403.5 626.5,400.5C 625.5,400.5 624.5,400.5 623.5,400.5C 622.674,404.982 622.174,409.649 622,414.5C 620.284,415.552 619.284,414.886 619,412.5C 618.833,413.167 618.667,413.833 618.5,414.5C 619.25,419.333 619.417,424.333 619,429.5C 618.586,429.957 618.086,430.291 617.5,430.5C 616.671,425.198 616.171,419.864 616,414.5C 615.802,416.382 615.302,418.048 614.5,419.5C 613.688,408.854 613.354,398.187 613.5,387.5C 611.167,387.5 608.833,387.5 606.5,387.5C 604.571,387.769 602.905,387.269 601.5,386C 605.082,383.637 608.749,381.47 612.5,379.5C 613.139,366.177 613.639,352.844 614,339.5C 614.785,337.714 615.951,336.214 617.5,335C 632.741,333.366 648.074,333.032 663.5,334C 666.863,335.899 668.863,338.732 669.5,342.5C 668.548,348.075 668.214,353.741 668.5,359.5C 667.596,360.209 667.263,361.209 667.5,362.5C 666.069,362.881 665.236,363.881 665,365.5C 663.801,379.183 662.635,392.849 661.5,406.5C 660.883,414.518 660.383,422.518 660,430.5C 663.528,436.895 667.028,443.229 670.5,449.5C 670.5,450.167 670.5,450.833 670.5,451.5C 670.582,473.641 670.249,495.474 669.5,517C 669.613,522.56 670.113,522.727 671,517.5C 671.499,521.486 671.666,525.486 671.5,529.5C 671.071,574.837 670.405,620.171 669.5,665.5C 667.355,668.433 665.188,671.433 663,674.5C 662.5,681.158 662.334,687.825 662.5,694.5C 648.167,694.5 633.833,694.5 619.5,694.5C 616.572,693.409 614.406,691.409 613,688.5C 612.5,682.175 612.334,675.842 612.5,669.5C 612.625,648.49 612.291,627.49 611.5,606.5C 599.5,606.5 587.5,606.5 575.5,606.5C 573.874,624.785 573.208,643.118 573.5,661.5C 572.26,664.024 571.093,666.691 570,669.5C 569.333,687.5 569.333,705.5 570,723.5C 571.75,725.257 572.916,727.257 573.5,729.5C 573.5,729.833 573.5,730.167 573.5,730.5C 573.918,731.222 574.584,731.722 575.5,732C 615.335,732.831 655.002,732.665 694.5,731.5C 700.225,730.944 704.058,727.944 706,722.5C 706.333,659.5 706.667,596.5 707,533.5C 708.5,532 710,530.5 711.5,529C 727.5,528.333 743.5,528.333 759.5,529C 761.667,529.833 763.167,531.333 764,533.5C 764.497,536.146 764.664,538.813 764.5,541.5C 763.515,545.634 763.182,549.968 763.5,554.5C 759.745,574.268 756.579,594.268 754,614.5C 752.951,642.495 752.118,670.495 751.5,698.5C 751.167,699.167 750.833,699.833 750.5,700.5C 739.996,713.259 728.662,725.426 716.5,737C 703.528,747.817 690.195,758.15 676.5,768C 629.357,784.035 581.024,794.869 531.5,800.5C 529.897,799.404 528.397,798.07 527,796.5C 526.667,747.833 526.333,699.167 526,650.5C 525.617,649.944 525.117,649.611 524.5,649.5C 524.389,648.883 524.056,648.383 523.5,648C 512.5,647.333 501.5,647.333 490.5,648C 490,648.5 489.5,649 489,649.5C 488.667,697.833 488.333,746.167 488,794.5C 485.925,798.537 482.592,800.204 478,799.5C 449.868,795.895 422.035,790.728 394.5,784C 377.148,779.495 359.814,774.995 342.5,770.5C 311.235,747.735 284.068,720.735 261,689.5C 259.307,637.178 258.64,584.844 259,532.5C 260.543,530.622 262.376,529.122 264.5,528C 278.833,527.333 293.167,527.333 307.5,528C 309.333,529.167 311.167,530.333 313,531.5C 314.159,595.253 314.993,658.919 315.5,722.5C 317.766,727.264 321.433,730.431 326.5,732C 366.208,732.827 405.875,732.661 445.5,731.5C 446.024,689.84 446.024,648.174 445.5,606.5C 434.167,606.5 422.833,606.5 411.5,606.5C 410.5,606.5 409.5,606.5 408.5,606.5C 407.769,634.157 407.269,661.824 407,689.5C 405.605,691.14 404.105,692.64 402.5,694C 387.837,694.5 373.17,694.667 358.5,694.5C 355.551,693.386 353.385,691.386 352,688.5C 351.5,657.168 351.333,625.835 351.5,594.5C 351.333,574.497 351.5,554.497 352,534.5C 353.479,526.631 353.312,518.964 351.5,511.5C 352.098,461.801 352.432,411.801 352.5,361.5C 352.334,354.159 352.5,346.826 353,339.5C 354.167,337 356,335.167 358.5,334C 372.833,333.333 387.167,333.333 401.5,334C 404,335.167 405.833,337 407,339.5C 407.173,345.348 407.673,351.015 408.5,356.5C 408.175,363.687 408.509,370.687 409.5,377.5C 421.412,380.768 433.412,384.101 445.5,387.5C 445.333,371.497 445.5,355.497 446,339.5C 446.785,337.714 447.951,336.214 449.5,335C 477.167,334.667 504.833,334.333 532.5,334C 533,333.5 533.5,333 534,332.5C 534.333,292.5 534.667,252.5 535,212.5C 536.167,211.333 537.333,210.167 538.5,209C 613.038,214.695 676.872,243.529 730,295.5C 731.328,298.312 732.828,300.978 734.5,303.5 Z"/></g>
<g><path style="opacity:1" fill="#1c2531" d="M 409.5,454.5 C 408.846,477.499 408.679,500.499 409,523.5C 433.103,531.09 456.603,540.257 479.5,551C 490.577,557.577 499.911,566.077 507.5,576.5C 506.167,576.5 504.833,576.5 503.5,576.5C 503.352,572.509 501.686,571.676 498.5,574C 499.973,574.71 500.64,575.876 500.5,577.5C 490.16,568.661 478.827,561.328 466.5,555.5C 449.786,547.48 432.452,540.813 414.5,535.5C 412.868,534.168 411.201,532.835 409.5,531.5C 411.624,530.851 413.624,530.017 415.5,529C 412.258,527.718 409.092,526.218 406,524.5C 405.667,524.833 405.333,525.167 405,525.5C 404.333,496.167 404.333,466.833 405,437.5C 405.333,442.167 405.667,446.833 406,451.5C 406.414,451.043 406.914,450.709 407.5,450.5C 408.172,451.949 408.839,453.282 409.5,454.5 Z"/></g>
<g><path style="opacity:1" fill="#c6343b" d="M 376.5,461.5 C 375.244,502.489 374.577,543.489 374.5,584.5C 373.168,575.023 372.501,565.19 372.5,555C 373.703,525.849 374.537,496.683 375,467.5C 375.191,465.292 375.691,463.292 376.5,461.5 Z"/></g>
<g><path style="opacity:1" fill="#e4e8ea" d="M 387.5,431.5 C 387.5,477.167 387.5,522.833 387.5,568.5C 388.5,568.5 389.5,568.5 390.5,568.5C 391.306,569.728 392.306,570.728 393.5,571.5C 389.6,572.43 385.6,572.763 381.5,572.5C 382.809,521.833 384.142,471.166 385.5,420.5C 386.117,420.389 386.617,420.056 387,419.5C 387.499,423.486 387.666,427.486 387.5,431.5 Z"/></g>
<g><path style="opacity:1" fill="#d7303f" d="M 649.5,441.5 C 650.167,446.833 650.833,452.167 651.5,457.5C 651.623,468.175 651.957,478.841 652.5,489.5C 652.5,500.5 652.5,511.5 652.5,522.5C 650.994,495.677 649.994,468.677 649.5,441.5 Z"/></g>
<g><path style="opacity:1" fill="#bfc4cb" d="M 515.5,449.5 C 515.168,494.003 515.501,538.336 516.5,582.5C 516.217,583.289 515.717,583.956 515,584.5C 514.502,581.183 514.335,577.85 514.5,574.5C 514.168,532.663 514.501,490.997 515.5,449.5 Z"/></g>
<g><path style="opacity:1" fill="#e12d34" d="M 372.5,412.5 C 377.5,412.5 382.5,412.5 387.5,412.5C 387.5,413.5 387.5,414.5 387.5,415.5C 386.833,415.5 386.5,415.833 386.5,416.5C 382.71,415.899 379.544,416.899 377,419.5C 376.5,433.163 376.333,446.829 376.5,460.5C 376.5,460.833 376.5,461.167 376.5,461.5C 375.691,463.292 375.191,465.292 375,467.5C 374.537,496.683 373.703,525.849 372.5,555C 372.501,565.19 373.168,575.023 374.5,584.5C 375.287,586.104 376.62,586.771 378.5,586.5C 405.67,587.637 433.004,587.637 460.5,586.5C 460.611,587.117 460.944,587.617 461.5,588C 453.323,588.171 445.323,588.671 437.5,589.5C 430.833,589.833 424.167,590.167 417.5,590.5C 401.161,590.627 384.828,590.96 368.5,591.5C 368.5,580.833 368.5,570.167 368.5,559.5C 368.5,555.167 368.5,550.833 368.5,546.5C 370.271,525.695 370.937,504.695 370.5,483.5C 371.883,460.013 372.549,436.346 372.5,412.5 Z"/></g>
<g><path style="opacity:1" fill="#a93242" d="M 649.5,412.5 C 649.833,412.5 650.167,412.5 650.5,412.5C 650.267,422.865 650.6,433.198 651.5,443.5C 651.5,448.167 651.5,452.833 651.5,457.5C 650.833,452.167 650.167,446.833 649.5,441.5C 649.5,431.833 649.5,422.167 649.5,412.5 Z"/></g>
<g><path style="opacity:1" fill="#411e2a" d="M 651.5,443.5 C 652.319,446.305 652.819,449.305 653,452.5C 653.988,477.825 654.488,503.158 654.5,528.5C 653.833,515.5 653.167,502.5 652.5,489.5C 651.957,478.841 651.623,468.175 651.5,457.5C 651.5,452.833 651.5,448.167 651.5,443.5 Z"/></g>
<g><path style="opacity:1" fill="#c8373f" d="M 645.5,434.5 C 647.706,470.979 649.206,507.645 650,544.5C 650.827,558.673 650.661,572.673 649.5,586.5C 648.221,535.833 646.887,485.166 645.5,434.5 Z"/></g>
<g><path style="opacity:1" fill="#ac363b" d="M 372.5,412.5 C 372.549,436.346 371.883,460.013 370.5,483.5C 370.333,463.164 370.5,442.831 371,422.5C 371.179,418.975 371.679,415.641 372.5,412.5 Z"/></g>
<g><path style="opacity:1" fill="#dcdfe2" d="M 403.5,531.5 C 405.915,535.422 408.915,538.922 412.5,542C 411.906,542.464 411.239,542.631 410.5,542.5C 407.06,541.909 403.727,540.909 400.5,539.5C 399.333,494.837 399.167,450.17 400,405.5C 401.011,404.663 402.178,404.33 403.5,404.5C 403.5,446.833 403.5,489.167 403.5,531.5 Z"/></g>
<g><path style="opacity:1" fill="#222c36" d="M 385.5,418.5 C 385.5,419.167 385.5,419.833 385.5,420.5C 384.142,471.166 382.809,521.833 381.5,572.5C 380.883,572.389 380.383,572.056 380,571.5C 379.774,568.905 379.274,566.405 378.5,564C 378.951,544.606 379.618,524.939 380.5,505C 379.371,477.079 378.704,448.913 378.5,420.5C 378.611,419.883 378.944,419.383 379.5,419C 381.473,418.505 383.473,418.338 385.5,418.5 Z"/></g>
<g><path style="opacity:1" fill="#ae333d" d="M 386.5,416.5 C 386.5,417.167 386.5,417.833 386.5,418.5C 386.167,418.5 385.833,418.5 385.5,418.5C 383.473,418.338 381.473,418.505 379.5,419C 378.944,419.383 378.611,419.883 378.5,420.5C 377.833,433.833 377.167,447.167 376.5,460.5C 376.333,446.829 376.5,433.163 377,419.5C 379.544,416.899 382.71,415.899 386.5,416.5 Z"/></g>
<g><path style="opacity:1" fill="#942f38" d="M 643.5,419.5 C 643.5,419.167 643.5,418.833 643.5,418.5C 645.446,423.396 646.113,428.729 645.5,434.5C 644.833,429.5 644.167,424.5 643.5,419.5 Z"/></g>
<g><path style="opacity:1" fill="#77787d" d="M 385.5,418.5 C 385.833,418.5 386.167,418.5 386.5,418.5C 387.8,420.223 388.467,422.39 388.5,425C 388.496,427.361 388.163,429.527 387.5,431.5C 387.666,427.486 387.499,423.486 387,419.5C 386.617,420.056 386.117,420.389 385.5,420.5C 385.5,419.833 385.5,419.167 385.5,418.5 Z"/></g>
<g><path style="opacity:1" fill="#9d9fa7" d="M 623.5,400.5 C 624.5,400.5 625.5,400.5 626.5,400.5C 626.5,403.5 626.5,406.5 626.5,409.5C 627.197,425.49 627.53,441.49 627.5,457.5C 627.828,468.346 627.494,479.013 626.5,489.5C 624.214,459.88 623.214,430.213 623.5,400.5 Z"/></g>
<g><path style="opacity:1" fill="#be3843" d="M 635.5,411.5 C 640.363,411.181 645.03,411.514 649.5,412.5C 645.278,412.078 641.278,412.745 637.5,414.5C 639.534,415.832 641.534,417.166 643.5,418.5C 641.5,418.5 639.5,418.5 637.5,418.5C 637.167,417.5 636.5,416.833 635.5,416.5C 635.5,414.833 635.5,413.167 635.5,411.5 Z"/></g>
<g><path style="opacity:1" fill="#a73940" d="M 372.5,412.5 C 377.64,411.512 382.974,411.179 388.5,411.5C 388.768,413.099 388.434,414.432 387.5,415.5C 387.5,414.5 387.5,413.5 387.5,412.5C 382.5,412.5 377.5,412.5 372.5,412.5 Z"/></g>
<g><path style="opacity:1" fill="#3f191f" d="M 635.5,411.5 C 637.81,410.836 640.31,410.503 643,410.5C 645.929,410.525 648.429,411.191 650.5,412.5C 650.167,412.5 649.833,412.5 649.5,412.5C 645.03,411.514 640.363,411.181 635.5,411.5 Z"/></g>
<g><path style="opacity:1" fill="#5d656f" d="M 414.5,387.5 C 413.5,387.5 412.5,387.5 411.5,387.5C 411.825,395.019 411.492,402.352 410.5,409.5C 410.5,401.833 410.5,394.167 410.5,386.5C 412.099,386.232 413.432,386.566 414.5,387.5 Z"/></g>
<g><path style="opacity:1" fill="#bdb6a6" d="M 668.5,359.5 C 670.214,389.442 670.88,419.442 670.5,449.5C 667.028,443.229 663.528,436.895 660,430.5C 660.383,422.518 660.883,414.518 661.5,406.5C 663.648,391.997 665.648,377.331 667.5,362.5C 667.263,361.209 667.596,360.209 668.5,359.5 Z"/></g>
<g><path style="opacity:1" fill="#222934" d="M 612.5,379.5 C 608.749,381.47 605.082,383.637 601.5,386C 602.905,387.269 604.571,387.769 606.5,387.5C 586.639,392.179 567.639,399.346 549.5,409C 533.596,418.731 522.263,432.231 515.5,449.5C 514.501,490.997 514.168,532.663 514.5,574.5C 513.522,530.392 513.189,486.226 513.5,442C 514.579,441.044 515.745,440.211 517,439.5C 517.617,438.551 517.451,437.718 516.5,437C 517.167,436.667 517.833,436.333 518.5,436C 517.72,434.927 517.887,433.76 519,432.5C 519.667,433.833 520.333,433.833 521,432.5C 523.19,428.924 525.19,425.257 527,421.5C 528,421.5 529,421.5 530,421.5C 536.669,414.608 544.169,408.775 552.5,404C 552.167,403.667 551.833,403.333 551.5,403C 554.352,403.654 556.519,402.487 558,399.5C 558.333,399.833 558.667,400.167 559,400.5C 559.317,398.699 559.984,398.366 561,399.5C 562.648,398.283 564.481,397.45 566.5,397C 565.304,396.346 565.304,395.846 566.5,395.5C 569.252,396.213 571.918,395.713 574.5,394C 573.756,392.961 572.756,392.461 571.5,392.5C 572.5,391.833 573.5,391.167 574.5,390.5C 576.5,389.833 578.5,389.167 580.5,388.5C 590.989,384.925 601.656,381.925 612.5,379.5 Z"/></g>
<g><path style="opacity:1" fill="#fdfdfd" d="M 606.5,387.5 C 608.833,387.5 611.167,387.5 613.5,387.5C 613.354,398.187 613.688,408.854 614.5,419.5C 615.347,449.858 616.68,480.192 618.5,510.5C 618.167,515.167 617.833,519.833 617.5,524.5C 594.965,531.6 572.965,540.1 551.5,550C 539.453,556.884 529.12,565.717 520.5,576.5C 519.167,578.5 517.833,580.5 516.5,582.5C 515.501,538.336 515.168,494.003 515.5,449.5C 522.263,432.231 533.596,418.731 549.5,409C 567.639,399.346 586.639,392.179 606.5,387.5 Z"/></g>
<g><path style="opacity:1" fill="#fdfdfd" d="M 414.5,387.5 C 435.081,391.638 454.748,398.472 473.5,408C 488.825,416.991 500.325,429.491 508,445.5C 509.151,468.105 509.651,490.772 509.5,513.5C 509.333,535.167 509.167,556.833 509,578.5C 508.283,577.956 507.783,577.289 507.5,576.5C 499.911,566.077 490.577,557.577 479.5,551C 456.603,540.257 433.103,531.09 409,523.5C 408.679,500.499 408.846,477.499 409.5,454.5C 409.611,439.494 409.945,424.494 410.5,409.5C 411.492,402.352 411.825,395.019 411.5,387.5C 412.5,387.5 413.5,387.5 414.5,387.5 Z"/></g>
<g><path style="opacity:1" fill="#2c3134" d="M 667.5,362.5 C 665.648,377.331 663.648,391.997 661.5,406.5C 662.635,392.849 663.801,379.183 665,365.5C 665.236,363.881 666.069,362.881 667.5,362.5 Z"/></g>
<g><path style="opacity:1" fill="#bab2a5" d="M 573.5,300.5 C 574.377,330.49 574.71,360.49 574.5,390.5C 573.5,391.167 572.5,391.833 571.5,392.5C 570.168,361.801 570.834,331.134 573.5,300.5 Z"/></g>
<g><path style="opacity:1" fill="#fbfaf6" d="M 409.5,377.5 C 408.509,370.687 408.175,363.687 408.5,356.5C 408.172,351.125 408.505,345.792 409.5,340.5C 410.086,340.709 410.586,341.043 411,341.5C 411.167,347.5 411.333,353.5 411.5,359.5C 411.496,365.872 410.829,371.872 409.5,377.5 Z"/></g>
<g><path style="opacity:1" fill="#f5f2ed" d="M 698.5,298.5 C 696.031,299.317 693.365,299.817 690.5,300C 652.835,300.5 615.168,300.667 577.5,300.5C 577.351,324.34 577.685,348.173 578.5,372C 578.549,377.744 579.216,383.244 580.5,388.5C 578.5,389.167 576.5,389.833 574.5,390.5C 574.71,360.49 574.377,330.49 573.5,300.5C 573.414,299.504 573.748,298.671 574.5,298C 615.904,297.173 657.238,297.34 698.5,298.5 Z"/></g>
<g><path style="opacity:1" fill="#9da2a9" d="M 393.5,488.5 C 393.5,512.5 393.5,536.5 393.5,560.5C 400.354,560.176 407.021,560.509 413.5,561.5C 406.5,561.5 399.5,561.5 392.5,561.5C 392.169,536.994 392.502,512.661 393.5,488.5 Z"/></g>
<g><path style="opacity:1" fill="#e9ebee" d="M 403.5,548.5 C 403.511,550.017 404.177,551.184 405.5,552C 413.35,554.796 421.35,556.962 429.5,558.5C 432.083,559.224 434.749,560.057 437.5,561C 433.179,561.499 428.846,561.666 424.5,561.5C 420.833,561.5 417.167,561.5 413.5,561.5C 407.021,560.509 400.354,560.176 393.5,560.5C 393.5,536.5 393.5,512.5 393.5,488.5C 393.5,460.833 393.5,433.167 393.5,405.5C 394.833,405.5 396.167,405.5 397.5,405.5C 396.533,452.502 396.533,499.502 397.5,546.5C 399.323,547.747 401.323,548.414 403.5,548.5 Z"/></g>
<g><path style="opacity:1" fill="#18212d" d="M 871.5,533.5 C 871.5,534.833 871.5,536.167 871.5,537.5C 864.531,557.242 858.031,577.242 852,597.5C 846.823,626.275 841.323,654.941 835.5,683.5C 827.471,700.556 818.138,716.889 807.5,732.5C 749.044,809.601 671.711,856.434 575.5,873C 560.829,874.871 546.163,876.704 531.5,878.5C 529.897,877.404 528.397,876.07 527,874.5C 526.333,864.167 526.333,853.833 527,843.5C 527.785,841.714 528.951,840.214 530.5,839C 583.973,832.932 636.306,821.599 687.5,805C 732.229,777.203 768.729,741.037 797,696.5C 798.058,641.752 799.725,587.085 802,532.5C 803.214,530.951 804.714,529.785 806.5,529C 826.5,528.333 846.5,528.333 866.5,529C 868.037,530.707 869.704,532.207 871.5,533.5 Z"/></g>
<g><path style="opacity:1" fill="#a73037" d="M 370.5,483.5 C 370.937,504.695 370.271,525.695 368.5,546.5C 368.485,525.32 369.151,504.32 370.5,483.5 Z"/></g>
<g><path style="opacity:1" fill="#97989b" d="M 528.5,580.5 C 527.761,580.631 527.094,580.464 526.5,580C 527.731,578.595 529.064,577.429 530.5,576.5C 550.242,560.791 572.242,548.958 596.5,541C 604.462,538.068 612.462,535.235 620.5,532.5C 621.655,535.446 621.821,538.446 621,541.5C 602.543,547.652 584.043,553.819 565.5,560C 551.879,564.804 539.546,571.637 528.5,580.5 Z"/></g>
<g><path style="opacity:1" fill="#411f28" d="M 643.5,419.5 C 644.167,424.5 644.833,429.5 645.5,434.5C 646.887,485.166 648.221,535.833 649.5,586.5C 649.167,586.5 648.833,586.5 648.5,586.5C 648.5,586.167 648.5,585.833 648.5,585.5C 646.228,530.188 644.562,474.854 643.5,419.5 Z"/></g>
<g><path style="opacity:1" fill="#94343f" d="M 652.5,489.5 C 653.167,502.5 653.833,515.5 654.5,528.5C 655.122,544.159 655.455,559.826 655.5,575.5C 655.167,575.5 654.833,575.5 654.5,575.5C 653.787,557.836 653.121,540.169 652.5,522.5C 652.5,511.5 652.5,500.5 652.5,489.5 Z"/></g>
<g><path style="opacity:1" fill="#9d9ea1" d="M 403.5,531.5 C 407.058,533.112 410.725,534.445 414.5,535.5C 432.452,540.813 449.786,547.48 466.5,555.5C 465.33,557.279 463.664,558.279 461.5,558.5C 444.348,553.302 427.348,547.968 410.5,542.5C 411.239,542.631 411.906,542.464 412.5,542C 408.915,538.922 405.915,535.422 403.5,531.5 Z"/></g>
<g><path style="opacity:1" fill="#1e2632" d="M 623.5,400.5 C 623.214,430.213 624.214,459.88 626.5,489.5C 626.954,503.332 627.621,516.999 628.5,530.5C 628.666,535.844 628.499,541.177 628,546.5C 627.5,547 627,547.5 626.5,548C 609.147,553.5 591.813,558.666 574.5,563.5C 561.025,566.739 548.358,571.906 536.5,579C 548.911,573.807 561.577,569.307 574.5,565.5C 584.321,564.301 593.988,562.968 603.5,561.5C 608.833,561.5 614.167,561.5 619.5,561.5C 623.5,561.5 627.5,561.5 631.5,561.5C 631.5,558.5 631.5,555.5 631.5,552.5C 630.764,520.651 629.431,488.984 627.5,457.5C 627.53,441.49 627.197,425.49 626.5,409.5C 627.317,411.969 627.817,414.635 628,417.5C 630.405,415.509 631.072,413.176 630,410.5C 631.356,411.38 632.856,411.714 634.5,411.5C 634.216,413.415 634.549,415.081 635.5,416.5C 636.291,466.832 636.957,517.165 637.5,567.5C 619.843,568.899 602.177,569.899 584.5,570.5C 575.602,570.652 566.936,572.152 558.5,575C 567.785,574.062 577.118,573.228 586.5,572.5C 585.048,573.302 583.382,573.802 581.5,574C 594.34,574.169 607.007,574.669 619.5,575.5C 604.163,575.333 588.83,575.5 573.5,576C 570.964,576.186 568.631,576.686 566.5,577.5C 563.615,577.194 560.948,577.527 558.5,578.5C 551.577,579.397 544.91,581.231 538.5,584C 545.453,582.911 552.453,581.745 559.5,580.5C 559.918,581.222 560.584,581.722 561.5,582C 559.833,582.333 558.167,582.667 556.5,583C 554.374,586.49 551.374,587.324 547.5,585.5C 543.984,586.045 540.651,587.045 537.5,588.5C 533.976,587.226 530.309,586.226 526.5,585.5C 528.359,583.808 530.359,582.308 532.5,581C 531.207,580.51 529.873,580.343 528.5,580.5C 539.546,571.637 551.879,564.804 565.5,560C 584.043,553.819 602.543,547.652 621,541.5C 621.821,538.446 621.655,535.446 620.5,532.5C 612.462,535.235 604.462,538.068 596.5,541C 572.242,548.958 550.242,560.791 530.5,576.5C 530.217,575.711 529.717,575.044 529,574.5C 527.667,577.167 526.333,577.167 525,574.5C 523.89,576.037 522.39,576.703 520.5,576.5C 529.12,565.717 539.453,556.884 551.5,550C 572.965,540.1 594.965,531.6 617.5,524.5C 617.833,519.833 618.167,515.167 618.5,510.5C 616.68,480.192 615.347,449.858 614.5,419.5C 615.302,418.048 615.802,416.382 616,414.5C 616.171,419.864 616.671,425.198 617.5,430.5C 618.086,430.291 618.586,429.957 619,429.5C 619.417,424.333 619.25,419.333 618.5,414.5C 618.667,413.833 618.833,413.167 619,412.5C 619.284,414.886 620.284,415.552 622,414.5C 622.174,409.649 622.674,404.982 623.5,400.5 Z"/></g>
<g><path style="opacity:1" fill="#84898e" d="M 627.5,457.5 C 629.431,488.984 630.764,520.651 631.5,552.5C 630.671,545.345 630.171,538.011 630,530.5C 629.182,525.206 628.682,525.206 628.5,530.5C 627.621,516.999 626.954,503.332 626.5,489.5C 627.494,479.013 627.828,468.346 627.5,457.5 Z"/></g>
<g><path style="opacity:1" fill="#acaaaa" d="M 403.5,548.5 C 411.934,550.454 420.267,552.787 428.5,555.5C 428.082,556.222 427.416,556.722 426.5,557C 427.737,557.232 428.737,557.732 429.5,558.5C 421.35,556.962 413.35,554.796 405.5,552C 404.177,551.184 403.511,550.017 403.5,548.5 Z"/></g>
<g><path style="opacity:1" fill="#9c9da0" d="M 635.5,416.5 C 636.5,416.833 637.167,417.5 637.5,418.5C 639.327,458.483 640.661,498.483 641.5,538.5C 641.5,549.5 641.5,560.5 641.5,571.5C 637.833,571.5 634.167,571.5 630.5,571.5C 616.833,571.5 603.167,571.5 589.5,571.5C 587.585,571.784 585.919,571.451 584.5,570.5C 602.177,569.899 619.843,568.899 637.5,567.5C 636.957,517.165 636.291,466.832 635.5,416.5 Z"/></g>
<g><path style="opacity:1" fill="#a2a1a3" d="M 631.5,552.5 C 631.5,555.5 631.5,558.5 631.5,561.5C 627.5,561.5 623.5,561.5 619.5,561.5C 622.962,560.518 626.629,560.185 630.5,560.5C 630.5,558.167 630.5,555.833 630.5,553.5C 619.327,555.141 608.327,557.641 597.5,561C 599.473,561.495 601.473,561.662 603.5,561.5C 593.988,562.968 584.321,564.301 574.5,565.5C 573.448,565.649 572.448,565.483 571.5,565C 572.737,564.768 573.737,564.268 574.5,563.5C 591.813,558.666 609.147,553.5 626.5,548C 627,547.5 627.5,547 628,546.5C 628.499,541.177 628.666,535.844 628.5,530.5C 628.682,525.206 629.182,525.206 630,530.5C 630.171,538.011 630.671,545.345 631.5,552.5 Z"/></g>
<g><path style="opacity:1" fill="#f7f5f5" d="M 619.5,561.5 C 614.167,561.5 608.833,561.5 603.5,561.5C 601.473,561.662 599.473,561.495 597.5,561C 608.327,557.641 619.327,555.141 630.5,553.5C 630.5,555.833 630.5,558.167 630.5,560.5C 626.629,560.185 622.962,560.518 619.5,561.5 Z"/></g>
<g><path style="opacity:1" fill="#a9a9ad" d="M 429.5,558.5 C 436.891,559.457 444.224,560.957 451.5,563C 450.207,563.49 448.873,563.657 447.5,563.5C 439.65,563.251 431.983,562.584 424.5,561.5C 428.846,561.666 433.179,561.499 437.5,561C 434.749,560.057 432.083,559.224 429.5,558.5 Z"/></g>
<g><path style="opacity:1" fill="#878b90" d="M 428.5,555.5 C 445.508,559.086 462.175,563.919 478.5,570C 483.904,572.264 488.904,575.098 493.5,578.5C 485.085,574.63 476.418,571.297 467.5,568.5C 460.974,565.868 454.307,564.202 447.5,563.5C 448.873,563.657 450.207,563.49 451.5,563C 444.224,560.957 436.891,559.457 429.5,558.5C 428.737,557.732 427.737,557.232 426.5,557C 427.416,556.722 428.082,556.222 428.5,555.5 Z"/></g>
<g><path style="opacity:1" fill="#888c91" d="M 466.5,555.5 C 478.827,561.328 490.16,568.661 500.5,577.5C 501.525,577.897 501.692,578.563 501,579.5C 488.676,570.757 475.509,563.757 461.5,558.5C 463.664,558.279 465.33,557.279 466.5,555.5 Z"/></g>
<g><path style="opacity:1" fill="#de2d34" d="M 649.5,412.5 C 649.5,422.167 649.5,431.833 649.5,441.5C 649.994,468.677 650.994,495.677 652.5,522.5C 653.121,540.169 653.787,557.836 654.5,575.5C 654.5,580.833 654.5,586.167 654.5,591.5C 648.833,591.5 643.167,591.5 637.5,591.5C 627.176,590.922 616.843,590.588 606.5,590.5C 604.167,590.5 601.833,590.5 599.5,590.5C 591.176,589.562 582.676,588.895 574,588.5C 571.31,588.503 568.81,588.836 566.5,589.5C 565.833,589.5 565.5,589.833 565.5,590.5C 564.833,590.5 564.167,590.5 563.5,590.5C 558.64,589.966 554.306,590.966 550.5,593.5C 550.167,593.5 549.833,593.5 549.5,593.5C 546.518,593.963 543.518,594.296 540.5,594.5C 539.262,594.19 539.262,593.69 540.5,593C 543.309,591.907 545.976,590.74 548.5,589.5C 548.833,589.5 549.167,589.5 549.5,589.5C 552.152,589.59 554.485,588.924 556.5,587.5C 557.167,587.5 557.833,587.5 558.5,587.5C 570.803,586.582 583.136,586.248 595.5,586.5C 613.167,586.5 630.833,586.5 648.5,586.5C 648.833,586.5 649.167,586.5 649.5,586.5C 650.661,572.673 650.827,558.673 650,544.5C 649.206,507.645 647.706,470.979 645.5,434.5C 646.113,428.729 645.446,423.396 643.5,418.5C 641.534,417.166 639.534,415.832 637.5,414.5C 641.278,412.745 645.278,412.078 649.5,412.5 Z"/></g>
<g><path style="opacity:1" fill="#80858a" d="M 574.5,563.5 C 573.737,564.268 572.737,564.768 571.5,565C 572.448,565.483 573.448,565.649 574.5,565.5C 561.577,569.307 548.911,573.807 536.5,579C 548.358,571.906 561.025,566.739 574.5,563.5 Z"/></g>
<g><path style="opacity:1" fill="#a6a5ab" d="M 390.5,568.5 C 398.833,568.5 407.167,568.5 415.5,568.5C 426.341,569.312 437.341,569.979 448.5,570.5C 447.791,571.404 446.791,571.737 445.5,571.5C 428.167,571.5 410.833,571.5 393.5,571.5C 392.306,570.728 391.306,569.728 390.5,568.5 Z"/></g>
<g><path style="opacity:1" fill="#777981" d="M 641.5,538.5 C 642.495,549.654 642.828,560.988 642.5,572.5C 638.298,572.817 634.298,572.483 630.5,571.5C 634.167,571.5 637.833,571.5 641.5,571.5C 641.5,560.5 641.5,549.5 641.5,538.5 Z"/></g>
<g><path style="opacity:1" fill="#6f737d" d="M 584.5,570.5 C 585.919,571.451 587.585,571.784 589.5,571.5C 588.791,572.404 587.791,572.737 586.5,572.5C 577.118,573.228 567.785,574.062 558.5,575C 566.936,572.152 575.602,570.652 584.5,570.5 Z"/></g>
<g><path style="opacity:1" fill="#73767d" d="M 448.5,570.5 C 461.668,571.125 474.334,573.959 486.5,579C 479.652,577.099 472.652,575.433 465.5,574C 458.62,573.71 451.954,572.877 445.5,571.5C 446.791,571.737 447.791,571.404 448.5,570.5 Z"/></g>
<g><path style="opacity:1" fill="#5d6065" d="M 619.5,575.5 C 624.363,575.181 629.03,575.514 633.5,576.5C 611.152,576.27 588.819,576.604 566.5,577.5C 568.631,576.686 570.964,576.186 573.5,576C 588.83,575.5 604.163,575.333 619.5,575.5 Z"/></g>
<g><path style="opacity:1" fill="#999b9f" d="M 633.5,576.5 C 635.167,576.5 636.833,576.5 638.5,576.5C 638.5,577.5 638.5,578.5 638.5,579.5C 612.828,578.271 587.162,578.271 561.5,579.5C 560.209,579.737 559.209,579.404 558.5,578.5C 560.948,577.527 563.615,577.194 566.5,577.5C 588.819,576.604 611.152,576.27 633.5,576.5 Z"/></g>
<g><path style="opacity:1" fill="#1f2732" d="M 415.5,568.5 C 433.007,568.963 450.34,568.963 467.5,568.5C 476.418,571.297 485.085,574.63 493.5,578.5C 496.116,579.48 498.449,580.98 500.5,583C 499.069,583.465 497.903,584.299 497,585.5C 496.439,584.978 495.772,584.645 495,584.5C 492.02,586.247 488.853,586.747 485.5,586C 485.833,585.667 486.167,585.333 486.5,585C 482.179,584.501 477.846,584.334 473.5,584.5C 466.28,583.706 458.946,582.706 451.5,581.5C 426.98,582.776 401.98,583.776 376.5,584.5C 375.348,581.894 375.182,579.227 376,576.5C 377.908,577.079 379.575,577.079 381,576.5C 382.768,575.318 382.935,573.985 381.5,572.5C 385.6,572.763 389.6,572.43 393.5,571.5C 410.833,571.5 428.167,571.5 445.5,571.5C 451.954,572.877 458.62,573.71 465.5,574C 472.652,575.433 479.652,577.099 486.5,579C 474.334,573.959 461.668,571.125 448.5,570.5C 437.341,569.979 426.341,569.312 415.5,568.5 Z"/></g>
<g><path style="opacity:1" fill="#98999c" d="M 416.5,575.5 C 437.498,574.123 458.165,575.957 478.5,581C 471.137,580.997 463.803,580.331 456.5,579C 432.832,578.654 409.165,578.821 385.5,579.5C 385.5,578.5 385.5,577.5 385.5,576.5C 396.014,576.828 406.347,576.494 416.5,575.5 Z"/></g>
<g><path style="opacity:1" fill="#70747c" d="M 558.5,578.5 C 559.209,579.404 560.209,579.737 561.5,579.5C 561.158,580.338 560.492,580.672 559.5,580.5C 552.453,581.745 545.453,582.911 538.5,584C 544.91,581.231 551.577,579.397 558.5,578.5 Z"/></g>
<g><path style="opacity:1" fill="#261f2d" d="M 378.5,420.5 C 378.704,448.913 379.371,477.079 380.5,505C 379.618,524.939 378.951,544.606 378.5,564C 379.274,566.405 379.774,568.905 380,571.5C 380.383,572.056 380.883,572.389 381.5,572.5C 382.935,573.985 382.768,575.318 381,576.5C 379.575,577.079 377.908,577.079 376,576.5C 375.182,579.227 375.348,581.894 376.5,584.5C 401.98,583.776 426.98,582.776 451.5,581.5C 458.946,582.706 466.28,583.706 473.5,584.5C 474.544,586.492 476.544,588.158 479.5,589.5C 473.188,588.338 466.855,587.338 460.5,586.5C 433.339,586.148 406.006,586.148 378.5,586.5C 376.62,586.771 375.287,586.104 374.5,584.5C 374.577,543.489 375.244,502.489 376.5,461.5C 376.5,461.167 376.5,460.833 376.5,460.5C 377.167,447.167 377.833,433.833 378.5,420.5 Z"/></g>
<g><path style="opacity:1" fill="#7f2d32" d="M 565.5,585.5 C 575.681,585.173 585.681,585.506 595.5,586.5C 583.136,586.248 570.803,586.582 558.5,587.5C 560.438,585.837 562.772,585.171 565.5,585.5 Z"/></g>
<g><path style="opacity:1" fill="#2e1a23" d="M 565.5,585.5 C 592.997,584.956 620.663,584.956 648.5,585.5C 648.5,585.833 648.5,586.167 648.5,586.5C 630.833,586.5 613.167,586.5 595.5,586.5C 585.681,585.506 575.681,585.173 565.5,585.5 Z"/></g>
<g><path style="opacity:1" fill="#c3bbaa" d="M 871.5,537.5 C 870.138,588.946 858.138,637.613 835.5,683.5C 841.323,654.941 846.823,626.275 852,597.5C 858.031,577.242 864.531,557.242 871.5,537.5 Z"/></g>
<g><path style="opacity:1" fill="#af3238" d="M 460.5,586.5 C 433.004,587.637 405.67,587.637 378.5,586.5C 406.006,586.148 433.339,586.148 460.5,586.5 Z"/></g>
<g><path style="opacity:1" fill="#bc3339" d="M 460.5,586.5 C 466.855,587.338 473.188,588.338 479.5,589.5C 479.5,589.833 479.5,590.167 479.5,590.5C 477.396,590.201 475.396,590.534 473.5,591.5C 476.786,592.042 479.786,593.042 482.5,594.5C 475.405,593.577 468.405,592.244 461.5,590.5C 453.684,589.508 445.684,589.174 437.5,589.5C 445.323,588.671 453.323,588.171 461.5,588C 460.944,587.617 460.611,587.117 460.5,586.5 Z"/></g>
<g><path style="opacity:1" fill="#8c3233" d="M 556.5,587.5 C 554.485,588.924 552.152,589.59 549.5,589.5C 551.515,588.076 553.848,587.41 556.5,587.5 Z"/></g>
<g><path style="opacity:1" fill="#a03039" d="M 566.5,589.5 C 568.81,588.836 571.31,588.503 574,588.5C 582.676,588.895 591.176,589.562 599.5,590.5C 588.493,590.342 577.493,590.008 566.5,589.5 Z"/></g>
<g><path style="opacity:1" fill="#3c1e27" d="M 565.5,590.5 C 565.5,589.833 565.833,589.5 566.5,589.5C 577.493,590.008 588.493,590.342 599.5,590.5C 601.833,590.5 604.167,590.5 606.5,590.5C 606.5,590.833 606.5,591.167 606.5,591.5C 592.824,591.487 579.157,591.154 565.5,590.5 Z"/></g>
<g><path style="opacity:1" fill="#a83539" d="M 368.5,559.5 C 368.5,570.167 368.5,580.833 368.5,591.5C 384.828,590.96 401.161,590.627 417.5,590.5C 401.365,592.172 385.031,592.839 368.5,592.5C 367.167,581.5 367.167,570.5 368.5,559.5 Z"/></g>
<g><path style="opacity:1" fill="#d12f35" d="M 479.5,590.5 C 483.358,591.839 487.358,592.673 491.5,593C 492.056,593.383 492.389,593.883 492.5,594.5C 492.662,596.527 492.495,598.527 492,600.5C 491.768,599.263 491.268,598.263 490.5,597.5C 488.021,596.205 485.354,595.205 482.5,594.5C 479.786,593.042 476.786,592.042 473.5,591.5C 475.396,590.534 477.396,590.201 479.5,590.5 Z"/></g>
<g><path style="opacity:1" fill="#812f33" d="M 606.5,591.5 C 606.5,591.167 606.5,590.833 606.5,590.5C 616.843,590.588 627.176,590.922 637.5,591.5C 642.975,592.489 648.642,592.822 654.5,592.5C 651.686,593.165 648.686,593.498 645.5,593.5C 632.495,592.833 619.495,592.166 606.5,591.5 Z"/></g>
<g><path style="opacity:1" fill="#bb3a40" d="M 654.5,575.5 C 654.833,575.5 655.167,575.5 655.5,575.5C 655.822,581.358 655.489,587.025 654.5,592.5C 648.642,592.822 642.975,592.489 637.5,591.5C 643.167,591.5 648.833,591.5 654.5,591.5C 654.5,586.167 654.5,580.833 654.5,575.5 Z"/></g>
<g><path style="opacity:1" fill="#351e26" d="M 437.5,589.5 C 445.684,589.174 453.684,589.508 461.5,590.5C 437.963,591.071 414.463,592.071 391,593.5C 383.326,593.5 375.826,593.166 368.5,592.5C 385.031,592.839 401.365,592.172 417.5,590.5C 424.167,590.167 430.833,589.833 437.5,589.5 Z"/></g>
<g><path style="opacity:1" fill="#412026" d="M 563.5,590.5 C 559.645,593.035 555.312,594.035 550.5,593.5C 554.306,590.966 558.64,589.966 563.5,590.5 Z"/></g>
<g><path style="opacity:1" fill="#aa3540" d="M 548.5,589.5 C 545.976,590.74 543.309,591.907 540.5,593C 539.262,593.69 539.262,594.19 540.5,594.5C 540.167,595.5 539.5,596.167 538.5,596.5C 537.817,594.824 536.483,594.157 534.5,594.5C 534.737,595.791 534.404,596.791 533.5,597.5C 533.286,595.856 533.62,594.356 534.5,593C 539.108,591.518 543.775,590.351 548.5,589.5 Z"/></g>
<g><path style="opacity:1" fill="#3f1d24" d="M 549.5,593.5 C 549.389,594.117 549.056,594.617 548.5,595C 542.891,594.81 538.557,596.976 535.5,601.5C 534.916,598.715 535.916,597.048 538.5,596.5C 539.5,596.167 540.167,595.5 540.5,594.5C 543.518,594.296 546.518,593.963 549.5,593.5 Z"/></g>
<g><path style="opacity:1" fill="#441b24" d="M 479.5,590.5 C 479.5,590.167 479.5,589.833 479.5,589.5C 483.796,590.43 488.13,591.263 492.5,592C 494.314,594.481 494.98,597.315 494.5,600.5C 493.833,598.5 493.167,596.5 492.5,594.5C 492.389,593.883 492.056,593.383 491.5,593C 487.358,592.673 483.358,591.839 479.5,590.5 Z"/></g>
<g><path style="opacity:1" fill="#f1efec" d="M 619.5,694.5 C 633.833,694.5 648.167,694.5 662.5,694.5C 665.056,693.457 667.223,691.79 669,689.5C 669.5,681.507 669.666,673.507 669.5,665.5C 670.405,620.171 671.071,574.837 671.5,529.5C 672.166,524.01 672.499,518.343 672.5,512.5C 672.089,491.997 671.422,471.663 670.5,451.5C 670.5,450.833 670.5,450.167 670.5,449.5C 670.88,419.442 670.214,389.442 668.5,359.5C 668.214,353.741 668.548,348.075 669.5,342.5C 670.222,342.082 670.722,341.416 671,340.5C 671.414,340.957 671.914,341.291 672.5,341.5C 673.219,392.006 674.219,442.506 675.5,493C 674.814,546.169 673.981,599.336 673,652.5C 672.5,654 672,655.5 671.5,657C 672.636,668.8 672.803,680.633 672,692.5C 670.74,695.428 668.573,697.261 665.5,698C 650.833,698.667 636.167,698.667 621.5,698C 619.061,697.467 618.395,696.3 619.5,694.5 Z"/></g>
<g><path style="opacity:1" fill="#c4bba8" d="M 764.5,541.5 C 764.5,542.167 764.5,542.833 764.5,543.5C 764.036,591.172 763.203,638.838 762,686.5C 758.968,690.359 755.802,694.026 752.5,697.5C 753.582,666.153 754.915,634.819 756.5,603.5C 757.5,603.5 758.5,603.5 759.5,603.5C 759.351,604.552 759.517,605.552 760,606.5C 761.216,604.038 761.882,601.371 762,598.5C 763.154,583.855 763.654,569.189 763.5,554.5C 763.182,549.968 763.515,545.634 764.5,541.5 Z"/></g>
<g><path style="opacity:1" fill="#bf333e" d="M 492.5,594.5 C 493.167,596.5 493.833,598.5 494.5,600.5C 495.167,603.167 496.833,604.833 499.5,605.5C 500.687,607.975 502.687,608.975 505.5,608.5C 506.167,608.5 506.833,608.5 507.5,608.5C 509.641,609.163 511.975,609.497 514.5,609.5C 518.141,609.685 521.474,609.019 524.5,607.5C 529.209,605.658 532.209,602.325 533.5,597.5C 534.404,596.791 534.737,595.791 534.5,594.5C 536.483,594.157 537.817,594.824 538.5,596.5C 535.916,597.048 534.916,598.715 535.5,601.5C 531.88,608.149 526.214,611.482 518.5,611.5C 512.797,611.625 507.13,611.292 501.5,610.5C 494.554,608.891 490.887,604.558 490.5,597.5C 491.268,598.263 491.768,599.263 492,600.5C 492.495,598.527 492.662,596.527 492.5,594.5 Z"/></g>
<g><path style="opacity:1" fill="#872a2d" d="M 524.5,607.5 C 521.474,609.019 518.141,609.685 514.5,609.5C 511.975,609.497 509.641,609.163 507.5,608.5C 513.203,608.625 518.87,608.292 524.5,607.5 Z"/></g>
<g><path style="opacity:1" fill="#5f222d" d="M 499.5,605.5 C 501.544,606.508 503.544,607.508 505.5,608.5C 502.687,608.975 500.687,607.975 499.5,605.5 Z"/></g>
<g><path style="opacity:1" fill="#993841" d="M 501.5,610.5 C 507.13,611.292 512.797,611.625 518.5,611.5C 516.359,612.163 514.025,612.497 511.5,612.5C 507.859,612.685 504.526,612.019 501.5,610.5 Z"/></g>
<g><path style="opacity:1" fill="#aeada6" d="M 948.5,592.5 C 947.118,602.086 945.118,611.419 942.5,620.5C 942.421,612.897 943.754,605.563 946.5,598.5C 946.471,596.971 945.804,595.804 944.5,595C 946.157,594.769 947.491,593.935 948.5,592.5 Z"/></g>
<g><path style="opacity:1" fill="#fdfaf3" d="M 739.5,719.5 C 739.351,718.448 739.517,717.448 740,716.5C 742.551,712.707 745.551,709.374 749,706.5C 750.128,704.655 750.628,702.655 750.5,700.5C 750.833,699.833 751.167,699.167 751.5,698.5C 752.167,698.5 752.5,698.167 752.5,697.5C 755.802,694.026 758.968,690.359 762,686.5C 763.203,638.838 764.036,591.172 764.5,543.5C 765.317,541.031 765.817,538.365 766,535.5C 768.018,537.522 768.852,540.022 768.5,543C 767.164,591.492 765.998,639.992 765,688.5C 757.331,699.654 748.831,709.988 739.5,719.5 Z"/></g>
<g><path style="opacity:1" fill="#f1ede6" d="M 612.5,669.5 C 610.925,649.021 610.258,628.354 610.5,607.5C 599.833,607.5 589.167,607.5 578.5,607.5C 578.376,624.621 578.709,641.621 579.5,658.5C 578.89,662.486 578.39,666.486 578,670.5C 577.667,688.167 577.333,705.833 577,723.5C 576.56,725.866 576.06,728.199 575.5,730.5C 574.833,730.5 574.167,730.5 573.5,730.5C 573.5,730.167 573.5,729.833 573.5,729.5C 573.5,706.833 573.5,684.167 573.5,661.5C 573.208,643.118 573.874,624.785 575.5,606.5C 587.5,606.5 599.5,606.5 611.5,606.5C 612.291,627.49 612.625,648.49 612.5,669.5 Z"/></g>
<g><path style="opacity:1" fill="#b9b6b0" d="M 86.5,647.5 C 83.3898,639.15 81.0565,630.484 79.5,621.5C 80.1174,621.389 80.6174,621.056 81,620.5C 83.6415,629.39 85.4749,638.39 86.5,647.5 Z"/></g>
<g><path style="opacity:1" fill="#fcfaf5" d="M 315.5,722.5 C 315.333,659.832 315.5,597.166 316,534.5C 317.16,566.083 317.66,597.749 317.5,629.5C 317.5,660.841 316.833,691.841 315.5,722.5 Z"/></g>
<g><path style="opacity:1" fill="#b6b0a3" d="M 763.5,554.5 C 763.654,569.189 763.154,583.855 762,598.5C 761.882,601.371 761.216,604.038 760,606.5C 759.517,605.552 759.351,604.552 759.5,603.5C 758.5,603.5 757.5,603.5 756.5,603.5C 754.915,634.819 753.582,666.153 752.5,697.5C 752.5,698.167 752.167,698.5 751.5,698.5C 752.118,670.495 752.951,642.495 754,614.5C 756.579,594.268 759.745,574.268 763.5,554.5 Z"/></g>
<g><path style="opacity:1" fill="#abaaa5" d="M 935.5,647.5 C 935.072,650.785 934.072,653.785 932.5,656.5C 932.344,653.934 932.678,651.434 933.5,649C 933.836,647.97 934.503,647.47 935.5,647.5 Z"/></g>
<g><path style="opacity:1" fill="#a2a09e" d="M 90.5,660.5 C 88.4111,656.499 87.0777,652.165 86.5,647.5C 87.1174,647.389 87.6174,647.056 88,646.5C 89.1571,651.127 89.9904,655.793 90.5,660.5 Z"/></g>
<g><path style="opacity:1" fill="#f1eeea" d="M 222.5,535.5 C 223.79,536.058 224.623,537.058 225,538.5C 225.412,580.001 225.912,621.501 226.5,663C 226.499,674.521 225.832,685.687 224.5,696.5C 223.028,643.007 222.361,589.34 222.5,535.5 Z"/></g>
<g><path style="opacity:1" fill="#faf8f3" d="M 871.5,533.5 C 873.411,533.574 874.578,534.574 875,536.5C 874.202,611.328 851.869,678.661 808,738.5C 806.296,740.373 804.463,742.04 802.5,743.5C 803.356,740.8 804.856,738.466 807,736.5C 807.49,735.207 807.657,733.873 807.5,732.5C 818.138,716.889 827.471,700.556 835.5,683.5C 858.138,637.613 870.138,588.946 871.5,537.5C 871.5,536.167 871.5,534.833 871.5,533.5 Z"/></g>
<g><path style="opacity:1" fill="#b1aeaa" d="M 930.5,663.5 C 929.538,667.395 928.204,671.061 926.5,674.5C 926.382,670.305 927.215,666.305 929,662.5C 929.383,663.056 929.883,663.389 930.5,663.5 Z"/></g>
<g><path style="opacity:1" fill="#b9b1a2" d="M 669.5,665.5 C 669.666,673.507 669.5,681.507 669,689.5C 667.223,691.79 665.056,693.457 662.5,694.5C 662.334,687.825 662.5,681.158 663,674.5C 665.188,671.433 667.355,668.433 669.5,665.5 Z"/></g>
<g><path style="opacity:1" fill="#b0aca9" d="M 925.5,677.5 C 924.925,680.912 923.592,683.912 921.5,686.5C 921.704,683.482 922.037,680.482 922.5,677.5C 923.5,677.5 924.5,677.5 925.5,677.5 Z"/></g>
<g><path style="opacity:1" fill="#b8b0a0" d="M 573.5,661.5 C 573.5,684.167 573.5,706.833 573.5,729.5C 572.916,727.257 571.75,725.257 570,723.5C 569.333,705.5 569.333,687.5 570,669.5C 571.093,666.691 572.26,664.024 573.5,661.5 Z"/></g>
<g><path style="opacity:1" fill="#a4a29d" d="M 921.5,686.5 C 921.128,690.297 919.794,693.63 917.5,696.5C 917.741,692.563 919.074,689.23 921.5,686.5 Z"/></g>
<g><path style="opacity:1" fill="#e9e9e6" d="M 411.5,606.5 C 411.667,635.169 411.5,663.835 411,692.5C 409.062,695.106 406.562,696.939 403.5,698C 389.833,698.667 376.167,698.667 362.5,698C 360.681,697.26 359.348,696.093 358.5,694.5C 373.17,694.667 387.837,694.5 402.5,694C 404.105,692.64 405.605,691.14 407,689.5C 407.269,661.824 407.769,634.157 408.5,606.5C 409.5,606.5 410.5,606.5 411.5,606.5 Z"/></g>
<g><path style="opacity:1" fill="#bdb9b4" d="M 114.5,717.5 C 109.453,709.401 105.453,700.735 102.5,691.5C 103.117,691.389 103.617,691.056 104,690.5C 105.186,695.031 107.019,699.197 109.5,703C 109.167,703.333 108.833,703.667 108.5,704C 110.301,704.317 110.634,704.984 109.5,706C 110.833,706.667 112.167,707.333 113.5,708C 113.167,708.333 112.833,708.667 112.5,709C 112.928,711.629 113.928,713.962 115.5,716C 114.944,716.383 114.611,716.883 114.5,717.5 Z"/></g>
<g><path style="opacity:1" fill="#b2aeab" d="M 573.5,730.5 C 574.167,730.5 574.833,730.5 575.5,730.5C 615.124,731.488 654.791,731.822 694.5,731.5C 655.002,732.665 615.335,732.831 575.5,732C 574.584,731.722 573.918,731.222 573.5,730.5 Z"/></g>
<g><path style="opacity:1" fill="#c6c2ba" d="M 120.5,730.5 C 122.591,731.865 124.924,732.532 127.5,732.5C 127.085,735.368 128.085,737.535 130.5,739C 129.572,739.388 128.905,740.055 128.5,741C 129.799,742.326 131.132,743.66 132.5,745C 132.146,746.626 132.146,748.459 132.5,750.5C 128.137,744.118 124.137,737.451 120.5,730.5 Z"/></g>
<g><path style="opacity:1" fill="#f3f3f2" d="M 750.5,700.5 C 750.628,702.655 750.128,704.655 749,706.5C 745.551,709.374 742.551,712.707 740,716.5C 739.517,717.448 739.351,718.448 739.5,719.5C 723.383,737.405 705.383,753.238 685.5,767C 682.167,769 678.833,771 675.5,773C 630.911,787.356 585.411,797.523 539,803.5C 536.064,803.309 533.564,802.309 531.5,800.5C 581.024,794.869 629.357,784.035 676.5,768C 690.195,758.15 703.528,747.817 716.5,737C 728.662,725.426 739.996,713.259 750.5,700.5 Z"/></g>
<g><path style="opacity:1" fill="#ededeb" d="M 524.5,649.5 C 513.749,650.307 502.916,651.307 492,652.5C 491.667,701.167 491.333,749.833 491,798.5C 489.64,800.105 488.14,801.605 486.5,803C 465.401,801.05 444.401,798.05 423.5,794C 397.185,788.255 371.185,781.588 345.5,774C 344.29,772.961 343.29,771.794 342.5,770.5C 359.814,774.995 377.148,779.495 394.5,784C 422.035,790.728 449.868,795.895 478,799.5C 482.592,800.204 485.925,798.537 488,794.5C 488.333,746.167 488.667,697.833 489,649.5C 489.5,649 490,648.5 490.5,648C 501.5,647.333 512.5,647.333 523.5,648C 524.056,648.383 524.389,648.883 524.5,649.5 Z"/></g>
<g><path style="opacity:1" fill="#ccc5ba" d="M 881.5,762.5 C 877.55,769.113 873.217,775.446 868.5,781.5C 868.822,779.278 868.155,777.444 866.5,776C 868.5,775.333 869.833,774 870.5,772C 871.793,771.51 873.127,771.343 874.5,771.5C 874.215,769.712 874.548,768.045 875.5,766.5C 876.086,766.709 876.586,767.043 877,767.5C 877.494,765.866 877.66,764.199 877.5,762.5C 878.833,762.5 880.167,762.5 881.5,762.5 Z"/></g>
<g><path style="opacity:1" fill="#d4cec4" d="M 158.5,788.5 C 160.527,788.338 162.527,788.505 164.5,789C 163.446,790.388 163.28,791.888 164,793.5C 165.586,794.376 167.086,795.376 168.5,796.5C 170.1,799.904 172.1,802.904 174.5,805.5C 180.44,807.068 183.106,810.735 182.5,816.5C 174.155,807.486 166.155,798.153 158.5,788.5 Z"/></g>
<g><path style="opacity:1" fill="#cac5bb" d="M 843.5,811.5 C 838.871,817.797 833.538,823.463 827.5,828.5C 826.046,825.6 827.046,824.267 830.5,824.5C 829.565,819.786 831.232,817.786 835.5,818.5C 836.004,815.658 837.671,814.325 840.5,814.5C 840.5,813.5 840.5,812.5 840.5,811.5C 841.5,811.5 842.5,811.5 843.5,811.5 Z"/></g>
<g><path style="opacity:1" fill="#ded6cb" d="M 420.5,828.5 C 403.8,825.574 387.466,821.574 371.5,816.5C 377.472,817.474 383.472,817.641 389.5,817C 388.833,816.667 388.167,816.333 387.5,816C 389.447,815.009 391.447,814.675 393.5,815C 393.167,815.333 392.833,815.667 392.5,816C 395.723,817.126 398.889,817.293 402,816.5C 402.749,817.635 402.583,818.635 401.5,819.5C 399.678,818.571 398.345,819.238 397.5,821.5C 400.837,822.089 404.004,823.089 407,824.5C 408.333,823.833 409.333,822.833 410,821.5C 412.961,824.724 416.461,827.058 420.5,828.5 Z"/></g>
<g><path style="opacity:1" fill="#f4f2f1" d="M 807.5,732.5 C 807.657,733.873 807.49,735.207 807,736.5C 804.856,738.466 803.356,740.8 802.5,743.5C 799.366,745.609 797.533,748.609 797,752.5C 742.207,816.999 673.04,857.499 589.5,874C 577.122,875.846 564.788,877.846 552.5,880C 545.839,881.39 539.173,881.556 532.5,880.5C 531.975,879.808 531.308,879.308 530.5,879C 530.728,878.601 531.062,878.435 531.5,878.5C 546.163,876.704 560.829,874.871 575.5,873C 671.711,856.434 749.044,809.601 807.5,732.5 Z"/></g>
<g><path style="opacity:1" fill="#f4f0ea" d="M 370.5,854.5 C 381.862,859.176 393.529,862.843 405.5,865.5C 423.347,870.989 441.681,874.656 460.5,876.5C 468.276,878.319 476.276,878.819 484.5,878C 486.041,876.629 487.375,875.129 488.5,873.5C 489.33,863.341 489.83,853.008 490,842.5C 490.419,843.672 491.085,844.672 492,845.5C 492.667,855.5 492.667,865.5 492,875.5C 490.634,877.37 489.467,879.37 488.5,881.5C 476.166,881.612 463.833,880.779 451.5,879C 442.887,877.131 434.221,875.465 425.5,874C 410.937,869.406 396.271,864.74 381.5,860C 378.167,859.667 374.833,859.333 371.5,859C 370.62,857.644 370.286,856.144 370.5,854.5 Z"/></g>
<g><path style="opacity:1" fill="#28303a" d="M 405.5,865.5 C 412.368,865.952 419.035,866.786 425.5,868C 424.044,867.577 423.544,866.744 424,865.5C 426.659,866.935 429.492,867.935 432.5,868.5C 433.517,871.028 434.684,871.028 436,868.5C 438.333,869.167 440.667,869.833 443,870.5C 443.333,870.167 443.667,869.833 444,869.5C 445.167,870.667 446.333,871.833 447.5,873C 447.167,873.333 446.833,873.667 446.5,874C 451.362,874.523 456.028,875.356 460.5,876.5C 441.681,874.656 423.347,870.989 405.5,865.5 Z"/></g>
<g><path style="opacity:1" fill="#c8c3bb" d="M 772.5,875.5 C 765.551,880.982 758.217,885.982 750.5,890.5C 750.5,889.167 750.5,887.833 750.5,886.5C 751.552,886.649 752.552,886.483 753.5,886C 755.734,882.926 758.734,881.426 762.5,881.5C 762.372,879.345 762.872,877.345 764,875.5C 766.36,874.842 769.193,874.842 772.5,875.5 Z"/></g>
<g><path style="opacity:1" fill="#828283" d="M 273.5,891.5 C 275.027,891.427 276.027,892.094 276.5,893.5C 274.973,893.573 273.973,892.906 273.5,891.5 Z"/></g>
<g><path style="opacity:1" fill="#b6b4ac" d="M 732.5,900.5 C 730.206,902.653 727.54,904.32 724.5,905.5C 724.67,904.178 724.337,903.011 723.5,902C 724.682,900.322 725.848,900.488 727,902.5C 728.597,901.115 730.43,900.449 732.5,900.5 Z"/></g>
<g><path style="opacity:1" fill="#c8c5b9" d="M 711.5,911.5 C 704.933,915.615 697.933,918.949 690.5,921.5C 691.159,919.862 691.826,918.195 692.5,916.5C 698.144,915.566 703.31,913.566 708,910.5C 709.138,910.989 710.305,911.322 711.5,911.5 Z"/></g>
<g><path style="opacity:1" fill="#b3b1ac" d="M 317.5,915.5 C 319.927,915.523 322.26,916.023 324.5,917C 325.252,917.671 325.586,918.504 325.5,919.5C 322.515,918.674 319.849,917.341 317.5,915.5 Z"/></g>
<g><path style="opacity:1" fill="#c5bfb9" d="M 345.5,927.5 C 350.927,928.465 356.261,929.631 361.5,931C 363.043,932.739 364.71,934.239 366.5,935.5C 359.112,933.597 352.112,930.93 345.5,927.5 Z"/></g>
<g><path style="opacity:1" fill="#93928e" d="M 367.5,935.5 C 371.162,935.723 374.495,936.723 377.5,938.5C 373.838,938.277 370.505,937.277 367.5,935.5 Z"/></g>
<g><path style="opacity:1" fill="#92918f" d="M 377.5,938.5 C 381.162,938.723 384.495,939.723 387.5,941.5C 383.838,941.277 380.505,940.277 377.5,938.5 Z"/></g>
<g><path style="opacity:1" fill="#888884" d="M 391.5,942.5 C 394.152,942.41 396.485,943.076 398.5,944.5C 395.848,944.59 393.515,943.924 391.5,942.5 Z"/></g>
<g><path style="opacity:1" fill="#b2afa7" d="M 398.5,944.5 C 406.272,943.589 413.272,945.256 419.5,949.5C 412.207,948.592 405.207,946.926 398.5,944.5 Z"/></g>
<g><path style="opacity:1" fill="#b2afa8" d="M 608.5,947.5 C 598.474,950.452 588.141,952.452 577.5,953.5C 587.304,949.473 597.637,947.473 608.5,947.5 Z"/></g>
<g><path style="opacity:1" fill="#898986" d="M 450.5,954.5 C 456.373,954.596 462.04,955.263 467.5,956.5C 461.596,956.679 455.929,956.012 450.5,954.5 Z"/></g>
</svg>
